<svg width="24" height="24" viewBox="0 0 16 17" fill="none" xmlns="http://www.w3.org/2000/svg">
<path fill-rule="evenodd" clip-rule="evenodd" d="M8.66667 2.5H7.33333V3.83333H8.66667V2.5ZM11.3333 3.83333H12.6667V5.16667H11.3333V3.83333ZM7.33333 7.83333H8.66667V9.16667H7.33333V7.83333ZM2 7.83333H3.33333V9.16667H2V7.83333ZM14 7.83333H12.6667V9.16667H14V7.83333ZM3.33333 3.83333H4.66667V5.16667H3.33333V3.83333ZM12.6667 13.1667H11.3333V11.8333H12.6667V13.1667ZM7.33333 14.5H8.66667V13.1667H7.33333V14.5ZM4.66667 13.1667H3.33333V11.8333H4.66667V13.1667ZM6 5.16667H10V6.5H6V5.16667ZM6 10.5H4.66667V6.5H6V10.5ZM6 10.5V11.8333H10V10.5H11.3333V6.5H10V10.5H6Z" fill="white"/>
</svg>
