<svg width="13" height="12" viewBox="0 0 13 12" fill="none" xmlns="http://www.w3.org/2000/svg">
<path fill-rule="evenodd" clip-rule="evenodd" d="M2.80322 5.5L2.80322 6.5L8.80322 6.5L8.80322 7.5L9.80322 7.5L9.80322 6.5L10.8032 6.5L10.8032 5.5L2.80322 5.5ZM7.80322 8.5L8.80322 8.5L8.80322 7.5L7.80322 7.5L7.80322 8.5ZM7.80322 8.5L6.80322 8.5L6.80322 9.5L7.80322 9.5L7.80322 8.5ZM8.80322 4.5L8.80322 5.5L9.80322 5.5L9.80322 4.5L8.80322 4.5ZM7.80322 3.5L8.80322 3.5L8.80322 4.5L7.80322 4.5L7.80322 3.5ZM7.80322 3.5L6.80322 3.5L6.80322 2.5L7.80322 2.5L7.80322 3.5Z" fill="white"/>
</svg>
