<svg width="368" height="476" viewBox="0 0 368 476" fill="none" xmlns="http://www.w3.org/2000/svg">
<rect width="368" height="475" transform="translate(0 0.5)" fill="white"/>
<g clip-path="url(#clip0_347_417)">
<rect width="320" height="321" transform="translate(24 24.5)" fill="#FFDFE0"/>
<rect x="109.511" y="106.89" width="146.489" height="233.617" rx="28.89" fill="url(#paint0_linear_347_417)"/>
<rect x="122.311" y="126.15" width="120.889" height="210.433" rx="27.1067" fill="#985C30"/>
<path fill-rule="evenodd" clip-rule="evenodd" d="M256 257.047H109.511V276.449L95.1194 276.409C73.5911 276.348 54.6799 290.689 48.9292 311.435L39.2888 346.213L109.511 346.213L181.511 346.213H186.311L256 346.213L328.533 346.213L318.893 311.435C313.142 290.689 294.231 276.348 272.703 276.409L256 276.455V257.047Z" fill="#F3A13F"/>
<ellipse cx="259.022" cy="183.038" rx="15.4667" ry="15.515" fill="#985C30"/>
<ellipse cx="105.067" cy="183.038" rx="15.4667" ry="15.515" fill="#985C30"/>
<path d="M156.8 218.527L181.712 216.223C181.814 216.213 181.917 216.226 182.013 216.26L205.333 224.412" stroke="#434343" stroke-opacity="0.95" stroke-width="33.8833" stroke-linecap="round"/>
<path d="M159.111 245.633C160.889 248.665 167.431 253.409 179.378 248.13" stroke="#8A4E22" stroke-width="4.28" stroke-linecap="round"/>
<path d="M184 188.388V202.298" stroke="#985C30" stroke-width="19.9733" stroke-linecap="round"/>
<rect x="143.644" y="152.543" width="35.9111" height="48.15" rx="17.9556" fill="white"/>
<g clip-path="url(#clip1_347_417)">
<rect x="160" y="166.097" width="15.2889" height="24.2533" rx="7.64444" fill="#3D3D3D"/>
<circle cx="161.07" cy="169.663" r="5.70667" fill="white"/>
</g>
<rect x="189.511" y="152.543" width="35.9111" height="48.15" rx="17.9556" fill="white"/>
<g clip-path="url(#clip2_347_417)">
<rect x="193.778" y="166.097" width="15.2889" height="24.2533" rx="7.64444" fill="#3D3D3D"/>
<circle cx="194.848" cy="169.663" r="5.70667" fill="white"/>
</g>
</g>
<path d="M26.786 372.56L28.466 381.17H27.934L29.614 372.56H31.504V382.5H30.328V373.484H30.398L28.704 381.8H27.696L26.002 373.484H26.072V382.5H24.896V372.56H26.786ZM35.1805 372.56L36.8605 381.17H36.3285L38.0085 372.56H39.8985V382.5H38.7225V373.484H38.7925L37.0985 381.8H36.0905L34.3965 373.484H34.4665V382.5H33.2905V372.56H35.1805ZM48.2931 372.56V373.708H43.2391V376.956H48.1251V378.076H43.2391V381.352H48.4051V382.5H42.0631V372.56H48.2931ZM44.8771 370.04V371.44H43.5751V370.04H44.8771ZM46.8791 370.04V371.44H45.5771V370.04H46.8791ZM52.6556 372.56C53.5796 372.56 54.3776 372.756 55.0496 373.148C55.7309 373.531 56.2536 374.095 56.6176 374.842C56.9816 375.589 57.1636 376.489 57.1636 377.544C57.1636 378.589 56.9863 379.485 56.6316 380.232C56.2769 380.969 55.7683 381.534 55.1056 381.926C54.4429 382.309 53.6543 382.5 52.7396 382.5H50.2476V372.56H52.6556ZM52.6556 381.352C53.7103 381.352 54.5176 381.035 55.0776 380.4C55.6469 379.756 55.9316 378.804 55.9316 377.544C55.9316 376.275 55.6516 375.318 55.0916 374.674C54.5316 374.03 53.7196 373.708 52.6556 373.708H51.4236V381.352H52.6556ZM64.6341 373.708H62.3661V381.352H64.7181V382.5H58.8381V381.352H61.1901V373.708H58.9221V372.56H64.6341V373.708ZM70.1727 382.724C69.4073 382.724 68.7493 382.514 68.1987 382.094C67.6573 381.674 67.242 381.077 66.9527 380.302C66.6633 379.518 66.5187 378.599 66.5187 377.544C66.5187 376.48 66.6633 375.556 66.9527 374.772C67.242 373.988 67.6573 373.386 68.1987 372.966C68.7493 372.546 69.4073 372.336 70.1727 372.336C70.938 372.336 71.5913 372.546 72.1327 372.966C72.6833 373.386 73.1033 373.988 73.3927 374.772C73.682 375.556 73.8267 376.48 73.8267 377.544C73.8267 378.599 73.682 379.518 73.3927 380.302C73.1033 381.077 72.6833 381.674 72.1327 382.094C71.5913 382.514 70.938 382.724 70.1727 382.724ZM70.1727 381.576C70.6767 381.576 71.1107 381.413 71.4747 381.086C71.848 380.759 72.128 380.293 72.3147 379.686C72.5107 379.079 72.6087 378.365 72.6087 377.544C72.6087 376.713 72.5107 375.995 72.3147 375.388C72.128 374.772 71.848 374.301 71.4747 373.974C71.1107 373.647 70.6767 373.484 70.1727 373.484C69.6687 373.484 69.23 373.647 68.8567 373.974C68.4927 374.301 68.2127 374.772 68.0167 375.388C67.83 375.995 67.7367 376.713 67.7367 377.544C67.7367 378.365 67.83 379.079 68.0167 379.686C68.2127 380.293 68.4927 380.759 68.8567 381.086C69.23 381.413 69.6687 381.576 70.1727 381.576ZM77.1392 372.56L80.4852 381.016V372.56H81.6612V382.5H79.8552L76.6492 374.324V382.5H75.4732V372.56H77.1392ZM89.7337 382.5L89.4537 380.232L89.7337 380.484C89.5844 381.193 89.2811 381.744 88.8237 382.136C88.3664 382.528 87.7784 382.724 87.0597 382.724C86.2944 382.724 85.6224 382.514 85.0437 382.094C84.4744 381.674 84.0357 381.077 83.7277 380.302C83.4291 379.518 83.2797 378.599 83.2797 377.544C83.2797 376.489 83.4291 375.57 83.7277 374.786C84.0357 373.993 84.4744 373.386 85.0437 372.966C85.6224 372.546 86.2944 372.336 87.0597 372.336C87.6011 372.336 88.1097 372.471 88.5857 372.742C89.0711 373.003 89.4817 373.372 89.8177 373.848C90.1631 374.315 90.4057 374.856 90.5457 375.472L89.3137 375.556C89.1551 374.931 88.8704 374.431 88.4597 374.058C88.0584 373.675 87.5917 373.484 87.0597 373.484C86.5184 373.484 86.0564 373.643 85.6737 373.96C85.2911 374.277 85.0017 374.739 84.8057 375.346C84.6097 375.953 84.5117 376.685 84.5117 377.544C84.5117 378.403 84.6097 379.135 84.8057 379.742C85.0017 380.339 85.2911 380.797 85.6737 381.114C86.0564 381.422 86.5184 381.576 87.0597 381.576C87.4984 381.576 87.8904 381.45 88.2357 381.198C88.5811 380.937 88.8611 380.582 89.0757 380.134C89.2997 379.686 89.4257 379.187 89.4537 378.636H87.0597V377.488H90.6017V382.5H89.7337ZM106.523 382.5L106.243 380.232L106.523 380.484C106.373 381.193 106.07 381.744 105.613 382.136C105.155 382.528 104.567 382.724 103.849 382.724C103.083 382.724 102.411 382.514 101.833 382.094C101.263 381.674 100.825 381.077 100.517 380.302C100.218 379.518 100.069 378.599 100.069 377.544C100.069 376.489 100.218 375.57 100.517 374.786C100.825 373.993 101.263 373.386 101.833 372.966C102.411 372.546 103.083 372.336 103.849 372.336C104.39 372.336 104.899 372.471 105.375 372.742C105.86 373.003 106.271 373.372 106.607 373.848C106.952 374.315 107.195 374.856 107.335 375.472L106.103 375.556C105.944 374.931 105.659 374.431 105.249 374.058C104.847 373.675 104.381 373.484 103.849 373.484C103.307 373.484 102.845 373.643 102.463 373.96C102.08 374.277 101.791 374.739 101.595 375.346C101.399 375.953 101.301 376.685 101.301 377.544C101.301 378.403 101.399 379.135 101.595 379.742C101.791 380.339 102.08 380.797 102.463 381.114C102.845 381.422 103.307 381.576 103.849 381.576C104.287 381.576 104.679 381.45 105.025 381.198C105.37 380.937 105.65 380.582 105.865 380.134C106.089 379.686 106.215 379.187 106.243 378.636H103.849V377.488H107.391V382.5H106.523ZM111.361 372.56H112.929L115.967 382.5H114.763L112.145 373.596L109.527 382.5H108.323L111.361 372.56ZM109.849 379.658L110.255 378.58H114.035L114.441 379.658H109.849ZM117.446 372.56H120.176C121.305 372.56 122.173 372.798 122.78 373.274C123.396 373.75 123.704 374.431 123.704 375.318C123.704 375.719 123.601 376.079 123.396 376.396C123.2 376.713 122.925 376.965 122.57 377.152C122.225 377.329 121.833 377.418 121.394 377.418L121.38 377.334C122.22 377.334 122.887 377.549 123.382 377.978C123.877 378.398 124.124 378.972 124.124 379.7C124.124 380.559 123.821 381.24 123.214 381.744C122.607 382.248 121.781 382.5 120.736 382.5H117.446V372.56ZM120.736 381.352C121.399 381.352 121.921 381.207 122.304 380.918C122.696 380.619 122.892 380.213 122.892 379.7C122.892 379.168 122.705 378.757 122.332 378.468C121.959 378.179 121.427 378.034 120.736 378.034H118.622V381.352H120.736ZM120.176 376.872C120.913 376.872 121.478 376.741 121.87 376.48C122.271 376.209 122.472 375.822 122.472 375.318C122.472 374.805 122.271 374.408 121.87 374.128C121.478 373.848 120.913 373.708 120.176 373.708H118.622V376.872H120.176ZM128.892 372.56C129.947 372.56 130.773 372.831 131.37 373.372C131.977 373.904 132.28 374.632 132.28 375.556C132.28 375.995 132.178 376.396 131.972 376.76C131.776 377.124 131.515 377.413 131.188 377.628C130.871 377.843 130.54 377.959 130.194 377.978L129.76 377.81C130.554 377.81 131.123 377.945 131.468 378.216C131.823 378.477 132.033 378.93 132.098 379.574L132.378 382.5H131.188L130.936 379.686C130.899 379.247 130.712 378.939 130.376 378.762C130.05 378.575 129.518 378.482 128.78 378.482H126.946V382.5H125.77V372.56H128.892ZM128.892 377.334C129.583 377.334 130.115 377.18 130.488 376.872C130.862 376.564 131.048 376.116 131.048 375.528C131.048 374.949 130.862 374.501 130.488 374.184C130.115 373.867 129.583 373.708 128.892 373.708H126.946V377.334H128.892ZM140.185 373.708H137.917V381.352H140.269V382.5H134.389V381.352H136.741V373.708H134.473V372.56H140.185V373.708ZM149.027 372.56V373.708H143.973V376.956H148.859V378.076H143.973V381.352H149.139V382.5H142.797V372.56H149.027ZM151.192 372.56H152.368V381.94L151.766 381.352H157.632V382.5H151.192V372.56ZM174.211 372.56V373.708H169.157V376.956H174.043V378.076H169.157V381.352H174.323V382.5H167.981V372.56H174.211ZM176.992 379.252C177.076 379.7 177.234 380.097 177.468 380.442C177.701 380.787 178 381.053 178.364 381.24C178.737 381.427 179.162 381.52 179.638 381.52C180.03 381.52 180.375 381.464 180.674 381.352C180.982 381.231 181.22 381.058 181.388 380.834C181.565 380.601 181.654 380.321 181.654 379.994C181.654 379.499 181.434 379.089 180.996 378.762C180.557 378.426 179.866 378.123 178.924 377.852C178.056 377.609 177.346 377.264 176.796 376.816C176.245 376.368 175.97 375.78 175.97 375.052C175.97 374.511 176.105 374.035 176.376 373.624C176.646 373.213 177.015 372.896 177.482 372.672C177.958 372.448 178.49 372.336 179.078 372.336C179.722 372.336 180.305 372.471 180.828 372.742C181.36 373.013 181.784 373.391 182.102 373.876C182.419 374.352 182.61 374.889 182.676 375.486L181.444 375.57C181.388 375.159 181.248 374.795 181.024 374.478C180.809 374.161 180.529 373.918 180.184 373.75C179.838 373.573 179.46 373.484 179.05 373.484C178.527 373.484 178.088 373.629 177.734 373.918C177.379 374.207 177.202 374.585 177.202 375.052C177.202 375.416 177.309 375.715 177.524 375.948C177.748 376.181 178.018 376.363 178.336 376.494C178.653 376.625 179.087 376.769 179.638 376.928C179.666 376.928 179.708 376.942 179.764 376.97C180.706 377.25 181.462 377.633 182.032 378.118C182.601 378.594 182.886 379.182 182.886 379.882C182.886 380.461 182.727 380.965 182.41 381.394C182.092 381.814 181.677 382.131 181.164 382.346C180.65 382.561 180.109 382.668 179.54 382.668C178.868 382.668 178.252 382.528 177.692 382.248C177.141 381.968 176.693 381.576 176.348 381.072C176.002 380.568 175.806 379.989 175.76 379.336L176.992 379.252ZM191.014 379.028C191.014 380.167 190.72 381.067 190.132 381.73C189.553 382.393 188.741 382.724 187.696 382.724C186.651 382.724 185.834 382.393 185.246 381.73C184.667 381.067 184.378 380.167 184.378 379.028V372.546H185.554V379.028C185.554 379.849 185.736 380.479 186.1 380.918C186.464 381.357 186.996 381.576 187.696 381.576C188.396 381.576 188.928 381.357 189.292 380.918C189.656 380.479 189.838 379.849 189.838 379.028V372.546H191.014V379.028Z" fill="#FF7535"/>
<path d="M31.924 404.378C31.728 405.423 31.322 406.245 30.706 406.842C30.09 407.43 29.32 407.724 28.396 407.724C27.5933 407.724 26.898 407.514 26.31 407.094C25.7313 406.674 25.2927 406.077 24.994 405.302C24.6953 404.527 24.546 403.608 24.546 402.544C24.546 401.471 24.6953 400.547 24.994 399.772C25.2927 398.988 25.7313 398.386 26.31 397.966C26.898 397.546 27.5933 397.336 28.396 397.336C29.264 397.336 29.9967 397.611 30.594 398.162C31.1913 398.713 31.6067 399.478 31.84 400.458L30.58 400.542C30.4027 399.889 30.1273 399.385 29.754 399.03C29.3807 398.666 28.928 398.484 28.396 398.484C27.836 398.484 27.36 398.643 26.968 398.96C26.5853 399.277 26.2913 399.739 26.086 400.346C25.8807 400.953 25.778 401.685 25.778 402.544C25.778 403.403 25.8807 404.135 26.086 404.742C26.2913 405.339 26.5853 405.797 26.968 406.114C27.36 406.422 27.836 406.576 28.396 406.576C28.9747 406.576 29.46 406.38 29.852 405.988C30.2533 405.587 30.5287 405.022 30.678 404.294L31.924 404.378ZM36.4685 400.08L36.5945 402.04L36.4685 401.928C36.5619 401.293 36.7672 400.827 37.0845 400.528C37.4019 400.229 37.8452 400.08 38.4145 400.08H39.8985V401.102H38.4145C38.0412 401.102 37.7285 401.177 37.4765 401.326C37.2245 401.475 37.0379 401.699 36.9165 401.998C36.7952 402.287 36.7345 402.647 36.7345 403.076V407.5H35.5865V400.08H36.4685ZM36.2305 400.08V401.102H33.6405V400.08H36.2305ZM39.1705 406.478V407.5H33.6405V406.478H39.1705ZM41.7271 403.79C41.7271 403.006 41.8624 402.325 42.1331 401.746C42.4131 401.158 42.8097 400.705 43.3231 400.388C43.8364 400.071 44.4337 399.912 45.1151 399.912C45.6844 399.912 46.2071 400.043 46.6831 400.304C47.1591 400.565 47.5417 400.976 47.8311 401.536C48.1297 402.096 48.2931 402.796 48.3211 403.636L48.3351 404.154H42.9451C42.9917 404.919 43.2017 405.517 43.5751 405.946C43.9577 406.366 44.4711 406.576 45.1151 406.576C45.5257 406.576 45.8991 406.464 46.2351 406.24C46.5711 406.016 46.8231 405.708 46.9911 405.316L48.2231 405.4C48.0084 406.091 47.6117 406.641 47.0331 407.052C46.4637 407.463 45.8244 407.668 45.1151 407.668C44.4337 407.668 43.8364 407.509 43.3231 407.192C42.8097 406.875 42.4131 406.427 42.1331 405.848C41.8624 405.26 41.7271 404.574 41.7271 403.79ZM47.0891 403.132C46.9864 402.395 46.7577 401.858 46.4031 401.522C46.0484 401.177 45.6191 401.004 45.1151 401.004C44.5177 401.004 44.0324 401.191 43.6591 401.564C43.2951 401.928 43.0664 402.451 42.9731 403.132H47.0891ZM50.2336 402.264C50.3643 401.564 50.7049 400.999 51.2556 400.57C51.8156 400.131 52.4783 399.912 53.2436 399.912C54.1676 399.912 54.8956 400.178 55.4276 400.71C55.9596 401.242 56.2256 402.012 56.2256 403.02V406.002C56.2256 406.161 56.2629 406.282 56.3376 406.366C56.4123 406.441 56.5289 406.478 56.6876 406.478H56.9956V407.5H56.6176C56.1976 407.5 55.8523 407.397 55.5816 407.192C55.3203 406.977 55.1569 406.693 55.0916 406.338C54.9329 406.711 54.6436 407.029 54.2236 407.29C53.8129 407.542 53.3229 407.668 52.7536 407.668C52.2589 407.668 51.8109 407.584 51.4096 407.416C51.0083 407.248 50.6909 407.005 50.4576 406.688C50.2243 406.361 50.1076 405.988 50.1076 405.568C50.1076 405.083 50.2196 404.695 50.4436 404.406C50.6676 404.117 50.9709 403.897 51.3536 403.748C51.7456 403.589 52.2543 403.449 52.8796 403.328L55.0776 402.908C55.0683 402.283 54.9003 401.811 54.5736 401.494C54.2563 401.167 53.8129 401.004 53.2436 401.004C52.7863 401.004 52.3989 401.13 52.0816 401.382C51.7643 401.634 51.5589 401.961 51.4656 402.362L50.2336 402.264ZM51.3116 405.568C51.3116 405.885 51.4469 406.147 51.7176 406.352C51.9883 406.557 52.3849 406.655 52.9076 406.646C53.3183 406.646 53.6916 406.553 54.0276 406.366C54.3636 406.179 54.6249 405.913 54.8116 405.568C55.0076 405.213 55.1056 404.798 55.1056 404.322V403.93L53.3276 404.238L53.0476 404.28C52.6369 404.355 52.3149 404.429 52.0816 404.504C51.8576 404.569 51.6709 404.686 51.5216 404.854C51.3816 405.022 51.3116 405.26 51.3116 405.568ZM61.7501 398.12V405.484C61.7501 405.792 61.8341 406.035 62.0021 406.212C62.1701 406.389 62.4081 406.478 62.7161 406.478H64.5641V407.5H62.7161C61.9975 407.5 61.4655 407.323 61.1201 406.968C60.7748 406.613 60.6021 406.114 60.6021 405.47V398.12H61.7501ZM64.5921 400.08V401.102H58.6141V400.08H64.5921ZM71.2367 400.08V407.5H70.0887V400.08H71.2367ZM71.2367 400.08V401.102H67.4147V400.08H71.2367ZM73.5047 406.478V407.5H67.4147V406.478H73.5047ZM71.2367 397.56V398.96H69.9347V397.56H71.2367ZM79.2812 407.5H77.8532L75.1372 400.08H76.3692L78.5672 406.296L80.7652 400.08H81.9972L79.2812 407.5ZM83.6997 403.79C83.6997 403.006 83.8351 402.325 84.1057 401.746C84.3857 401.158 84.7824 400.705 85.2957 400.388C85.8091 400.071 86.4064 399.912 87.0877 399.912C87.6571 399.912 88.1797 400.043 88.6557 400.304C89.1317 400.565 89.5144 400.976 89.8037 401.536C90.1024 402.096 90.2657 402.796 90.2937 403.636L90.3077 404.154H84.9177C84.9644 404.919 85.1744 405.517 85.5477 405.946C85.9304 406.366 86.4437 406.576 87.0877 406.576C87.4984 406.576 87.8717 406.464 88.2077 406.24C88.5437 406.016 88.7957 405.708 88.9637 405.316L90.1957 405.4C89.9811 406.091 89.5844 406.641 89.0057 407.052C88.4364 407.463 87.7971 407.668 87.0877 407.668C86.4064 407.668 85.8091 407.509 85.2957 407.192C84.7824 406.875 84.3857 406.427 84.1057 405.848C83.8351 405.26 83.6997 404.574 83.6997 403.79ZM89.0617 403.132C88.9591 402.395 88.7304 401.858 88.3757 401.522C88.0211 401.177 87.5917 401.004 87.0877 401.004C86.4904 401.004 86.0051 401.191 85.6317 401.564C85.2677 401.928 85.0391 402.451 84.9457 403.132H89.0617ZM103.821 397.56C104.549 397.56 105.174 397.681 105.697 397.924C106.229 398.157 106.635 398.503 106.915 398.96C107.195 399.408 107.335 399.94 107.335 400.556C107.335 401.2 107.195 401.751 106.915 402.208C106.635 402.665 106.229 403.015 105.697 403.258C105.174 403.501 104.549 403.622 103.821 403.622H102.001V407.5H100.825V397.56H103.821ZM103.821 402.474C104.577 402.474 105.146 402.315 105.529 401.998C105.911 401.671 106.103 401.191 106.103 400.556C106.103 399.94 105.911 399.478 105.529 399.17C105.146 398.862 104.577 398.708 103.821 398.708H102.001V402.474H103.821ZM112.019 400.08L112.145 402.04L112.019 401.928C112.113 401.293 112.318 400.827 112.635 400.528C112.953 400.229 113.396 400.08 113.965 400.08H115.449V401.102H113.965C113.592 401.102 113.279 401.177 113.027 401.326C112.775 401.475 112.589 401.699 112.467 401.998C112.346 402.287 112.285 402.647 112.285 403.076V407.5H111.137V400.08H112.019ZM111.781 400.08V401.102H109.191V400.08H111.781ZM114.721 406.478V407.5H109.191V406.478H114.721ZM120.54 407.668C119.859 407.668 119.261 407.509 118.748 407.192C118.244 406.875 117.852 406.427 117.572 405.848C117.292 405.26 117.152 404.574 117.152 403.79C117.152 403.006 117.292 402.325 117.572 401.746C117.852 401.158 118.244 400.705 118.748 400.388C119.261 400.071 119.859 399.912 120.54 399.912C121.221 399.912 121.814 400.071 122.318 400.388C122.831 400.705 123.228 401.158 123.508 401.746C123.788 402.325 123.928 403.006 123.928 403.79C123.928 404.574 123.788 405.26 123.508 405.848C123.228 406.427 122.831 406.875 122.318 407.192C121.814 407.509 121.221 407.668 120.54 407.668ZM120.54 406.576C121.231 406.576 121.767 406.333 122.15 405.848C122.533 405.353 122.724 404.667 122.724 403.79C122.724 402.913 122.533 402.231 122.15 401.746C121.767 401.251 121.231 401.004 120.54 401.004C119.849 401.004 119.313 401.251 118.93 401.746C118.547 402.231 118.356 402.913 118.356 403.79C118.356 404.667 118.547 405.353 118.93 405.848C119.313 406.333 119.849 406.576 120.54 406.576ZM130.852 397.56H132V407.5H130.964L130.922 406.408C130.708 406.809 130.4 407.122 129.998 407.346C129.597 407.561 129.116 407.668 128.556 407.668C127.866 407.668 127.287 407.495 126.82 407.15C126.354 406.795 126.004 406.324 125.77 405.736C125.537 405.148 125.42 404.499 125.42 403.79C125.42 403.081 125.537 402.437 125.77 401.858C126.004 401.27 126.354 400.799 126.82 400.444C127.287 400.089 127.866 399.912 128.556 399.912C129.098 399.912 129.56 400.015 129.942 400.22C130.334 400.425 130.638 400.715 130.852 401.088V397.56ZM130.712 405.162C130.871 404.742 130.95 404.285 130.95 403.79C130.95 403.277 130.871 402.81 130.712 402.39C130.563 401.961 130.325 401.615 129.998 401.354C129.681 401.093 129.28 400.962 128.794 400.962C128.066 400.962 127.52 401.233 127.156 401.774C126.802 402.306 126.624 402.978 126.624 403.79C126.624 404.574 126.802 405.237 127.156 405.778C127.52 406.31 128.066 406.576 128.794 406.576C129.28 406.576 129.681 406.445 129.998 406.184C130.325 405.923 130.563 405.582 130.712 405.162ZM139.079 407.5V405.652L139.219 405.806C139.098 406.422 138.818 406.889 138.379 407.206C137.95 407.514 137.441 407.668 136.853 407.668C136.06 407.668 135.448 407.407 135.019 406.884C134.599 406.352 134.389 405.675 134.389 404.854V400.08H135.537V404.504C135.537 405.213 135.658 405.75 135.901 406.114C136.153 406.469 136.55 406.646 137.091 406.646C137.679 406.646 138.15 406.459 138.505 406.086C138.86 405.713 139.037 405.185 139.037 404.504V400.08H140.185V407.5H139.079ZM147.795 402.558C147.711 402.082 147.492 401.704 147.137 401.424C146.783 401.144 146.372 401.004 145.905 401.004C145.215 401.004 144.678 401.251 144.295 401.746C143.913 402.231 143.721 402.913 143.721 403.79C143.721 404.667 143.913 405.353 144.295 405.848C144.678 406.333 145.215 406.576 145.905 406.576C146.391 406.576 146.811 406.427 147.165 406.128C147.529 405.82 147.753 405.405 147.837 404.882L149.055 404.952C148.981 405.503 148.794 405.983 148.495 406.394C148.197 406.805 147.819 407.122 147.361 407.346C146.913 407.561 146.428 407.668 145.905 407.668C145.224 407.668 144.627 407.509 144.113 407.192C143.609 406.875 143.217 406.427 142.937 405.848C142.657 405.26 142.517 404.574 142.517 403.79C142.517 403.006 142.657 402.325 142.937 401.746C143.217 401.158 143.609 400.705 144.113 400.388C144.627 400.071 145.224 399.912 145.905 399.912C146.409 399.912 146.885 400.019 147.333 400.234C147.791 400.439 148.164 400.738 148.453 401.13C148.743 401.522 148.925 401.975 148.999 402.488L147.795 402.558ZM154.09 398.12V405.484C154.09 405.792 154.174 406.035 154.342 406.212C154.51 406.389 154.748 406.478 155.056 406.478H156.904V407.5H155.056C154.337 407.5 153.805 407.323 153.46 406.968C153.115 406.613 152.942 406.114 152.942 405.47V398.12H154.09ZM156.932 400.08V401.102H150.954V400.08H156.932ZM27.472 414.56C28.396 414.56 29.194 414.756 29.866 415.148C30.5473 415.531 31.07 416.095 31.434 416.842C31.798 417.589 31.98 418.489 31.98 419.544C31.98 420.589 31.8027 421.485 31.448 422.232C31.0933 422.969 30.5847 423.534 29.922 423.926C29.2593 424.309 28.4707 424.5 27.556 424.5H25.064V414.56H27.472ZM27.472 423.352C28.5267 423.352 29.334 423.035 29.894 422.4C30.4633 421.756 30.748 420.804 30.748 419.544C30.748 418.275 30.468 417.318 29.908 416.674C29.348 416.03 28.536 415.708 27.472 415.708H26.24V423.352H27.472ZM33.3325 420.79C33.3325 420.006 33.4679 419.325 33.7385 418.746C34.0185 418.158 34.4152 417.705 34.9285 417.388C35.4419 417.071 36.0392 416.912 36.7205 416.912C37.2899 416.912 37.8125 417.043 38.2885 417.304C38.7645 417.565 39.1472 417.976 39.4365 418.536C39.7352 419.096 39.8985 419.796 39.9265 420.636L39.9405 421.154H34.5505C34.5972 421.919 34.8072 422.517 35.1805 422.946C35.5632 423.366 36.0765 423.576 36.7205 423.576C37.1312 423.576 37.5045 423.464 37.8405 423.24C38.1765 423.016 38.4285 422.708 38.5965 422.316L39.8285 422.4C39.6139 423.091 39.2172 423.641 38.6385 424.052C38.0692 424.463 37.4299 424.668 36.7205 424.668C36.0392 424.668 35.4419 424.509 34.9285 424.192C34.4152 423.875 34.0185 423.427 33.7385 422.848C33.4679 422.26 33.3325 421.574 33.3325 420.79ZM38.6945 420.132C38.5919 419.395 38.3632 418.858 38.0085 418.522C37.6539 418.177 37.2245 418.004 36.7205 418.004C36.1232 418.004 35.6379 418.191 35.2645 418.564C34.9005 418.928 34.6719 419.451 34.5785 420.132H38.6945ZM46.8231 419.362C46.7391 418.951 46.5151 418.625 46.1511 418.382C45.7964 418.13 45.3764 418.004 44.8911 418.004C44.4711 418.004 44.1117 418.111 43.8131 418.326C43.5237 418.531 43.3791 418.816 43.3791 419.18C43.3791 419.413 43.4491 419.605 43.5891 419.754C43.7384 419.894 43.9111 420.006 44.1071 420.09C44.3124 420.165 44.5924 420.249 44.9471 420.342C45.0217 420.361 45.0964 420.384 45.1711 420.412C45.7591 420.561 46.2491 420.715 46.6411 420.874C47.0424 421.033 47.3737 421.252 47.6351 421.532C47.8964 421.812 48.0271 422.171 48.0271 422.61C48.0271 423.291 47.7471 423.805 47.1871 424.15C46.6271 424.495 45.9457 424.668 45.1431 424.668C44.5737 424.668 44.0511 424.565 43.5751 424.36C43.0991 424.155 42.7164 423.865 42.4271 423.492C42.1377 423.109 41.9744 422.671 41.9371 422.176L43.1271 422.092C43.1737 422.391 43.2857 422.652 43.4631 422.876C43.6497 423.1 43.8877 423.273 44.1771 423.394C44.4757 423.515 44.7977 423.576 45.1431 423.576C45.6284 423.576 46.0297 423.497 46.3471 423.338C46.6644 423.179 46.8231 422.918 46.8231 422.554C46.8231 422.321 46.7484 422.139 46.5991 422.008C46.4497 421.868 46.2724 421.765 46.0671 421.7C45.8617 421.635 45.5911 421.56 45.2551 421.476L44.9611 421.406C44.1024 421.201 43.4211 420.944 42.9171 420.636C42.4224 420.319 42.1751 419.857 42.1751 419.25C42.1751 418.765 42.3011 418.349 42.5531 418.004C42.8144 417.649 43.1597 417.379 43.5891 417.192C44.0277 417.005 44.5037 416.912 45.0171 416.912C45.7824 416.912 46.4357 417.131 46.9771 417.57C47.5184 417.999 47.8497 418.569 47.9711 419.278L46.8231 419.362ZM54.4476 417.08V424.5H53.2996V417.08H54.4476ZM54.4476 417.08V418.102H50.6256V417.08H54.4476ZM56.7156 423.478V424.5H50.6256V423.478H56.7156ZM54.4476 414.56V415.96H53.1456V414.56H54.4476ZM61.7501 424.108C61.0781 424.108 60.4901 423.954 59.9861 423.646C59.4821 423.338 59.0948 422.913 58.8241 422.372C58.5535 421.821 58.4181 421.201 58.4181 420.51C58.4181 419.819 58.5535 419.203 58.8241 418.662C59.1041 418.111 59.4961 417.682 60.0001 417.374C60.5135 417.066 61.0968 416.912 61.7501 416.912C62.2355 416.912 62.6695 417.038 63.0521 417.29C63.4441 417.533 63.7195 417.859 63.8781 418.27V417.08H64.9701V423.772C64.9701 424.733 64.6715 425.471 64.0741 425.984C63.4861 426.507 62.6975 426.768 61.7081 426.768C61.1855 426.768 60.7095 426.679 60.2801 426.502C59.8508 426.325 59.4915 426.073 59.2021 425.746C58.9221 425.419 58.7308 425.041 58.6281 424.612L59.8321 424.528C59.9815 424.892 60.2148 425.172 60.5321 425.368C60.8588 425.573 61.2508 425.676 61.7081 425.676C62.3801 425.676 62.8981 425.531 63.2621 425.242C63.6355 424.962 63.8221 424.556 63.8221 424.024V422.792C63.6075 423.212 63.3088 423.539 62.9261 423.772C62.5528 423.996 62.1608 424.108 61.7501 424.108ZM59.6221 420.51C59.6221 420.995 59.7061 421.429 59.8741 421.812C60.0421 422.185 60.2848 422.479 60.6021 422.694C60.9288 422.909 61.3115 423.016 61.7501 423.016C62.1608 423.016 62.5201 422.909 62.8281 422.694C63.1455 422.479 63.3928 422.185 63.5701 421.812C63.7475 421.429 63.8361 420.995 63.8361 420.51C63.8455 420.034 63.7661 419.609 63.5981 419.236C63.4301 418.853 63.1875 418.555 62.8701 418.34C62.5528 418.125 62.1795 418.018 61.7501 418.018C61.3115 418.018 60.9288 418.125 60.6021 418.34C60.2848 418.545 60.0421 418.839 59.8741 419.222C59.7061 419.595 59.6221 420.025 59.6221 420.51ZM68.3667 417.08L68.4087 418.984L68.2687 418.83C68.39 418.195 68.67 417.719 69.1087 417.402C69.5473 417.075 70.0747 416.912 70.6907 416.912C71.5027 416.912 72.1233 417.173 72.5527 417.696C72.982 418.219 73.1967 418.895 73.1967 419.726V424.5H72.0347V420.062C72.0347 419.353 71.9087 418.821 71.6567 418.466C71.4047 418.111 71.0033 417.934 70.4527 417.934C69.8367 417.934 69.3513 418.121 68.9967 418.494C68.642 418.858 68.4647 419.381 68.4647 420.062V424.5H67.3167V417.08H68.3667ZM75.3052 420.79C75.3052 420.006 75.4405 419.325 75.7112 418.746C75.9912 418.158 76.3879 417.705 76.9012 417.388C77.4145 417.071 78.0119 416.912 78.6932 416.912C79.2625 416.912 79.7852 417.043 80.2612 417.304C80.7372 417.565 81.1199 417.976 81.4092 418.536C81.7079 419.096 81.8712 419.796 81.8992 420.636L81.9132 421.154H76.5232C76.5699 421.919 76.7799 422.517 77.1532 422.946C77.5359 423.366 78.0492 423.576 78.6932 423.576C79.1039 423.576 79.4772 423.464 79.8132 423.24C80.1492 423.016 80.4012 422.708 80.5692 422.316L81.8012 422.4C81.5865 423.091 81.1899 423.641 80.6112 424.052C80.0419 424.463 79.4025 424.668 78.6932 424.668C78.0119 424.668 77.4145 424.509 76.9012 424.192C76.3879 423.875 75.9912 423.427 75.7112 422.848C75.4405 422.26 75.3052 421.574 75.3052 420.79ZM80.6672 420.132C80.5645 419.395 80.3359 418.858 79.9812 418.522C79.6265 418.177 79.1972 418.004 78.6932 418.004C78.0959 418.004 77.6105 418.191 77.2372 418.564C76.8732 418.928 76.6445 419.451 76.5512 420.132H80.6672ZM86.8357 417.08L86.9617 419.04L86.8357 418.928C86.9291 418.293 87.1344 417.827 87.4517 417.528C87.7691 417.229 88.2124 417.08 88.7817 417.08H90.2657V418.102H88.7817C88.4084 418.102 88.0957 418.177 87.8437 418.326C87.5917 418.475 87.4051 418.699 87.2837 418.998C87.1624 419.287 87.1017 419.647 87.1017 420.076V424.5H85.9537V417.08H86.8357ZM86.5977 417.08V418.102H84.0077V417.08H86.5977ZM89.5377 423.478V424.5H84.0077V423.478H89.5377ZM102.239 414.56C102.612 414.373 103.004 414.299 103.415 414.336C103.872 414.373 104.278 414.527 104.633 414.798C104.997 415.069 105.253 415.414 105.403 415.834C105.552 416.245 105.557 416.679 105.417 417.136C105.295 417.519 105.076 417.892 104.759 418.256C104.451 418.611 104.054 418.942 103.569 419.25L105.879 422.19C106.037 421.975 106.154 421.677 106.229 421.294C106.303 420.902 106.331 420.501 106.313 420.09L107.517 420.202C107.507 420.753 107.419 421.289 107.251 421.812C107.092 422.325 106.877 422.745 106.607 423.072L107.797 424.5H106.411L105.879 423.856C105.832 423.903 105.785 423.945 105.739 423.982C105.459 424.206 105.123 424.379 104.731 424.5C104.339 424.612 103.919 424.668 103.471 424.668C102.78 424.668 102.173 424.561 101.651 424.346C101.128 424.131 100.717 423.814 100.419 423.394C100.129 422.974 99.9848 422.47 99.9848 421.882C99.9848 421.434 100.055 421.056 100.195 420.748C100.344 420.431 100.531 420.165 100.755 419.95C100.988 419.726 101.333 419.441 101.791 419.096L101.931 418.998L101.791 418.802C101.52 418.41 101.319 418.037 101.189 417.682C101.058 417.318 100.993 416.963 100.993 416.618C100.993 416.151 101.105 415.741 101.329 415.386C101.562 415.022 101.865 414.747 102.239 414.56ZM104.437 423.436C104.726 423.333 104.945 423.189 105.095 423.002L102.659 419.894C102.211 420.183 101.851 420.482 101.581 420.79C101.31 421.098 101.175 421.462 101.175 421.882C101.175 422.227 101.268 422.531 101.455 422.792C101.651 423.053 101.921 423.254 102.267 423.394C102.612 423.525 103.013 423.59 103.471 423.59C103.825 423.59 104.147 423.539 104.437 423.436ZM102.337 417.43C102.458 417.71 102.64 418.023 102.883 418.368C103.34 418.144 103.699 417.883 103.961 417.584C104.231 417.285 104.367 416.982 104.367 416.674C104.367 416.338 104.273 416.063 104.087 415.848C103.909 415.624 103.667 415.503 103.359 415.484C103.013 415.465 102.724 415.573 102.491 415.806C102.257 416.039 102.145 416.324 102.155 416.66C102.155 416.893 102.215 417.15 102.337 417.43ZM119.812 414.56C120.736 414.56 121.534 414.756 122.206 415.148C122.887 415.531 123.41 416.095 123.774 416.842C124.138 417.589 124.32 418.489 124.32 419.544C124.32 420.589 124.143 421.485 123.788 422.232C123.433 422.969 122.925 423.534 122.262 423.926C121.599 424.309 120.811 424.5 119.896 424.5H117.404V414.56H119.812ZM119.812 423.352C120.867 423.352 121.674 423.035 122.234 422.4C122.803 421.756 123.088 420.804 123.088 419.544C123.088 418.275 122.808 417.318 122.248 416.674C121.688 416.03 120.876 415.708 119.812 415.708H118.58V423.352H119.812ZM125.672 420.79C125.672 420.006 125.808 419.325 126.078 418.746C126.358 418.158 126.755 417.705 127.268 417.388C127.782 417.071 128.379 416.912 129.06 416.912C129.63 416.912 130.152 417.043 130.628 417.304C131.104 417.565 131.487 417.976 131.776 418.536C132.075 419.096 132.238 419.796 132.266 420.636L132.28 421.154H126.89C126.937 421.919 127.147 422.517 127.52 422.946C127.903 423.366 128.416 423.576 129.06 423.576C129.471 423.576 129.844 423.464 130.18 423.24C130.516 423.016 130.768 422.708 130.936 422.316L132.168 422.4C131.954 423.091 131.557 423.641 130.978 424.052C130.409 424.463 129.77 424.668 129.06 424.668C128.379 424.668 127.782 424.509 127.268 424.192C126.755 423.875 126.358 423.427 126.078 422.848C125.808 422.26 125.672 421.574 125.672 420.79ZM131.034 420.132C130.932 419.395 130.703 418.858 130.348 418.522C129.994 418.177 129.564 418.004 129.06 418.004C128.463 418.004 127.978 418.191 127.604 418.564C127.24 418.928 127.012 419.451 126.918 420.132H131.034ZM138.043 424.5H136.615L133.899 417.08H135.131L137.329 423.296L139.527 417.08H140.759L138.043 424.5ZM142.461 420.79C142.461 420.006 142.597 419.325 142.867 418.746C143.147 418.158 143.544 417.705 144.057 417.388C144.571 417.071 145.168 416.912 145.849 416.912C146.419 416.912 146.941 417.043 147.417 417.304C147.893 417.565 148.276 417.976 148.565 418.536C148.864 419.096 149.027 419.796 149.055 420.636L149.069 421.154H143.679C143.726 421.919 143.936 422.517 144.309 422.946C144.692 423.366 145.205 423.576 145.849 423.576C146.26 423.576 146.633 423.464 146.969 423.24C147.305 423.016 147.557 422.708 147.725 422.316L148.957 422.4C148.743 423.091 148.346 423.641 147.767 424.052C147.198 424.463 146.559 424.668 145.849 424.668C145.168 424.668 144.571 424.509 144.057 424.192C143.544 423.875 143.147 423.427 142.867 422.848C142.597 422.26 142.461 421.574 142.461 420.79ZM147.823 420.132C147.721 419.395 147.492 418.858 147.137 418.522C146.783 418.177 146.353 418.004 145.849 418.004C145.252 418.004 144.767 418.191 144.393 418.564C144.029 418.928 143.801 419.451 143.707 420.132H147.823ZM157.45 423.478V424.5H151.36V423.478H157.45ZM153.964 424.5V416.436C153.964 416.137 153.894 415.923 153.754 415.792C153.623 415.652 153.418 415.582 153.138 415.582H151.374V414.56H153.138C153.773 414.56 154.258 414.723 154.594 415.05C154.939 415.367 155.112 415.829 155.112 416.436V424.5H153.964ZM162.513 424.668C161.831 424.668 161.234 424.509 160.721 424.192C160.217 423.875 159.825 423.427 159.545 422.848C159.265 422.26 159.125 421.574 159.125 420.79C159.125 420.006 159.265 419.325 159.545 418.746C159.825 418.158 160.217 417.705 160.721 417.388C161.234 417.071 161.831 416.912 162.513 416.912C163.194 416.912 163.787 417.071 164.291 417.388C164.804 417.705 165.201 418.158 165.481 418.746C165.761 419.325 165.901 420.006 165.901 420.79C165.901 421.574 165.761 422.26 165.481 422.848C165.201 423.427 164.804 423.875 164.291 424.192C163.787 424.509 163.194 424.668 162.513 424.668ZM162.513 423.576C163.203 423.576 163.74 423.333 164.123 422.848C164.505 422.353 164.697 421.667 164.697 420.79C164.697 419.913 164.505 419.231 164.123 418.746C163.74 418.251 163.203 418.004 162.513 418.004C161.822 418.004 161.285 418.251 160.903 418.746C160.52 419.231 160.329 419.913 160.329 420.79C160.329 421.667 160.52 422.353 160.903 422.848C161.285 423.333 161.822 423.576 162.513 423.576ZM167.841 417.08H168.877L168.933 418.704L168.807 418.48C168.994 417.976 169.292 417.589 169.703 417.318C170.114 417.047 170.618 416.912 171.215 416.912C171.915 416.912 172.503 417.089 172.979 417.444C173.464 417.789 173.824 418.256 174.057 418.844C174.29 419.423 174.407 420.071 174.407 420.79C174.407 421.499 174.29 422.148 174.057 422.736C173.824 423.315 173.464 423.781 172.979 424.136C172.503 424.491 171.915 424.668 171.215 424.668C170.823 424.668 170.464 424.607 170.137 424.486C169.81 424.355 169.535 424.173 169.311 423.94C169.096 423.707 168.933 423.417 168.821 423.072L168.989 422.876V426.6H167.841V417.08ZM168.849 420.79C168.849 421.285 168.928 421.742 169.087 422.162C169.246 422.582 169.488 422.923 169.815 423.184C170.142 423.436 170.543 423.562 171.019 423.562C171.728 423.562 172.265 423.296 172.629 422.764C172.993 422.232 173.175 421.574 173.175 420.79C173.175 420.006 172.993 419.348 172.629 418.816C172.265 418.275 171.728 418.004 171.019 418.004C170.543 418.004 170.142 418.135 169.815 418.396C169.488 418.657 169.246 418.998 169.087 419.418C168.928 419.838 168.849 420.295 168.849 420.79ZM176.04 420.79C176.04 420.006 176.175 419.325 176.446 418.746C176.726 418.158 177.122 417.705 177.636 417.388C178.149 417.071 178.746 416.912 179.428 416.912C179.997 416.912 180.52 417.043 180.996 417.304C181.472 417.565 181.854 417.976 182.144 418.536C182.442 419.096 182.606 419.796 182.634 420.636L182.648 421.154H177.258C177.304 421.919 177.514 422.517 177.888 422.946C178.27 423.366 178.784 423.576 179.428 423.576C179.838 423.576 180.212 423.464 180.548 423.24C180.884 423.016 181.136 422.708 181.304 422.316L182.536 422.4C182.321 423.091 181.924 423.641 181.346 424.052C180.776 424.463 180.137 424.668 179.428 424.668C178.746 424.668 178.149 424.509 177.636 424.192C177.122 423.875 176.726 423.427 176.446 422.848C176.175 422.26 176.04 421.574 176.04 420.79ZM181.402 420.132C181.299 419.395 181.07 418.858 180.716 418.522C180.361 418.177 179.932 418.004 179.428 418.004C178.83 418.004 178.345 418.191 177.972 418.564C177.608 418.928 177.379 419.451 177.286 420.132H181.402ZM187.57 417.08L187.696 419.04L187.57 418.928C187.663 418.293 187.869 417.827 188.186 417.528C188.503 417.229 188.947 417.08 189.516 417.08H191V418.102H189.516C189.143 418.102 188.83 418.177 188.578 418.326C188.326 418.475 188.139 418.699 188.018 418.998C187.897 419.287 187.836 419.647 187.836 420.076V424.5H186.688V417.08H187.57ZM187.332 417.08V418.102H184.742V417.08H187.332ZM190.272 423.478V424.5H184.742V423.478H190.272Z" fill="black"/>
<path d="M25.056 439.98H26.352V448.008L25.536 447.276H30.648V448.5H25.056V439.98ZM31.9153 445.32C31.9153 444.648 32.0353 444.064 32.2753 443.568C32.5233 443.064 32.8713 442.676 33.3193 442.404C33.7673 442.132 34.2913 441.996 34.8913 441.996C35.3953 441.996 35.8553 442.112 36.2713 442.344C36.6953 442.568 37.0393 442.924 37.3033 443.412C37.5673 443.892 37.7113 444.5 37.7353 445.236L37.7473 445.668H33.2593C33.3073 446.244 33.4713 446.692 33.7513 447.012C34.0393 447.324 34.4193 447.48 34.8913 447.48C35.2033 447.48 35.4833 447.396 35.7313 447.228C35.9873 447.06 36.1793 446.824 36.3073 446.52L37.6513 446.628C37.4753 447.244 37.1313 447.736 36.6193 448.104C36.1153 448.464 35.5393 448.644 34.8913 448.644C34.2913 448.644 33.7673 448.508 33.3193 448.236C32.8713 447.964 32.5233 447.58 32.2753 447.084C32.0353 446.58 31.9153 445.992 31.9153 445.32ZM36.3673 444.696C36.2873 444.168 36.1113 443.78 35.8393 443.532C35.5753 443.276 35.2593 443.148 34.8913 443.148C34.4593 443.148 34.1033 443.284 33.8233 443.556C33.5513 443.828 33.3753 444.208 33.2953 444.696H36.3673ZM39.1106 445.32C39.1106 444.648 39.2306 444.064 39.4706 443.568C39.7186 443.064 40.0666 442.676 40.5146 442.404C40.9626 442.132 41.4866 441.996 42.0866 441.996C42.5906 441.996 43.0506 442.112 43.4666 442.344C43.8906 442.568 44.2346 442.924 44.4986 443.412C44.7626 443.892 44.9066 444.5 44.9306 445.236L44.9426 445.668H40.4546C40.5026 446.244 40.6666 446.692 40.9466 447.012C41.2346 447.324 41.6146 447.48 42.0866 447.48C42.3986 447.48 42.6786 447.396 42.9266 447.228C43.1826 447.06 43.3746 446.824 43.5026 446.52L44.8466 446.628C44.6706 447.244 44.3266 447.736 43.8146 448.104C43.3106 448.464 42.7346 448.644 42.0866 448.644C41.4866 448.644 40.9626 448.508 40.5146 448.236C40.0666 447.964 39.7186 447.58 39.4706 447.084C39.2306 446.58 39.1106 445.992 39.1106 445.32ZM43.5626 444.696C43.4826 444.168 43.3066 443.78 43.0346 443.532C42.7706 443.276 42.4546 443.148 42.0866 443.148C41.6546 443.148 41.2986 443.284 41.0186 443.556C40.7466 443.828 40.5706 444.208 40.4906 444.696H43.5626ZM50.6139 439.98H51.8859V448.5H50.6979L50.6619 447.6C50.4859 447.936 50.2339 448.196 49.9059 448.38C49.5859 448.556 49.1979 448.644 48.7419 448.644C48.1819 448.644 47.7059 448.496 47.3139 448.2C46.9219 447.904 46.6259 447.504 46.4259 447C46.2339 446.496 46.1379 445.936 46.1379 445.32C46.1379 444.704 46.2339 444.144 46.4259 443.64C46.6259 443.136 46.9219 442.736 47.3139 442.44C47.7059 442.144 48.1819 441.996 48.7419 441.996C49.1819 441.996 49.5539 442.08 49.8579 442.248C50.1699 442.416 50.4219 442.664 50.6139 442.992V439.98ZM50.5419 446.4C50.6619 446.072 50.7219 445.712 50.7219 445.32C50.7219 444.912 50.6619 444.544 50.5419 444.216C50.4299 443.88 50.2499 443.612 50.0019 443.412C49.7619 443.212 49.4619 443.112 49.1019 443.112C48.5579 443.112 48.1499 443.32 47.8779 443.736C47.6059 444.152 47.4699 444.68 47.4699 445.32C47.4699 445.936 47.6059 446.452 47.8779 446.868C48.1499 447.276 48.5579 447.48 49.1019 447.48C49.4619 447.48 49.7619 447.384 50.0019 447.192C50.2499 446.992 50.4299 446.728 50.5419 446.4ZM57.7013 444.144C57.6373 443.832 57.4773 443.588 57.2213 443.412C56.9653 443.236 56.6573 443.148 56.2973 443.148C55.9853 443.148 55.7213 443.224 55.5053 443.376C55.2973 443.52 55.1973 443.72 55.2053 443.976C55.2053 444.144 55.2613 444.284 55.3733 444.396C55.4853 444.5 55.6213 444.584 55.7812 444.648C55.9493 444.704 56.1813 444.768 56.4773 444.84C56.5493 444.856 56.6133 444.872 56.6693 444.888C57.1573 445.008 57.5693 445.144 57.9053 445.296C58.2413 445.448 58.5173 445.652 58.7333 445.908C58.9493 446.156 59.0573 446.464 59.0573 446.832C59.0573 447.424 58.8173 447.876 58.3373 448.188C57.8573 448.492 57.2493 448.644 56.5133 448.644C56.0093 448.644 55.5493 448.556 55.1333 448.38C54.7173 448.196 54.3813 447.94 54.1253 447.612C53.8693 447.284 53.7253 446.904 53.6933 446.472L55.0373 446.4C55.0693 446.616 55.1493 446.808 55.2773 446.976C55.4133 447.144 55.5893 447.272 55.8053 447.36C56.0213 447.44 56.2573 447.48 56.5133 447.48C56.8653 447.48 57.1533 447.428 57.3773 447.324C57.6093 447.212 57.7253 447.028 57.7253 446.772C57.7253 446.612 57.6693 446.484 57.5573 446.388C57.4533 446.292 57.3213 446.216 57.1613 446.16C57.0013 446.104 56.7893 446.044 56.5253 445.98L56.2613 445.92C55.5173 445.744 54.9333 445.512 54.5093 445.224C54.0853 444.936 53.8733 444.532 53.8733 444.012C53.8733 443.604 53.9853 443.248 54.2093 442.944C54.4413 442.64 54.7493 442.408 55.1333 442.248C55.5173 442.08 55.9413 441.996 56.4053 441.996C57.0853 441.996 57.6653 442.184 58.1453 442.56C58.6253 442.936 58.9173 443.44 59.0213 444.072L57.7013 444.144ZM72.4999 439.26C71.7239 440.348 71.2039 441.48 70.9399 442.656C70.6759 443.832 70.6759 445.008 70.9399 446.184C71.2039 447.36 71.7239 448.492 72.4999 449.58H71.3239C70.4519 448.492 69.8679 447.36 69.5719 446.184C69.2759 445.008 69.2759 443.832 69.5719 442.656C69.8679 441.48 70.4519 440.348 71.3239 439.26H72.4999ZM80.8832 445.488C80.8832 446.488 80.6272 447.272 80.1152 447.84C79.6032 448.408 78.8872 448.692 77.9672 448.692C77.0472 448.692 76.3312 448.408 75.8192 447.84C75.3152 447.272 75.0632 446.488 75.0632 445.488V439.968H76.3592V445.572C76.3592 446.18 76.4952 446.648 76.7672 446.976C77.0392 447.304 77.4392 447.468 77.9672 447.468C78.4952 447.468 78.8952 447.304 79.1672 446.976C79.4392 446.648 79.5752 446.18 79.5752 445.572V439.968H80.8832V445.488ZM83.4345 439.98V443.46L86.6265 439.98H88.2585L85.0065 443.652L88.4745 448.5H86.8905L84.1065 444.6L83.4345 445.296V448.5H82.1265V439.98H83.4345ZM92.1898 442.656C91.9258 441.48 91.4058 440.348 90.6298 439.26H91.8058C92.6778 440.348 93.2618 441.48 93.5578 442.656C93.8538 443.832 93.8538 445.008 93.5578 446.184C93.2618 447.36 92.6778 448.492 91.8058 449.58H90.6298C91.4058 448.492 91.9258 447.36 92.1898 446.184C92.4538 445.008 92.4538 443.832 92.1898 442.656ZM99.4451 450.432H98.7491L99.3971 448.5H100.345L99.4451 450.432ZM100.345 446.94V448.5H98.7611V446.94H100.345ZM111.4 439.98H112.696V448.008L111.88 447.276H116.992V448.5H111.4V439.98ZM118.391 444.048C118.511 443.424 118.815 442.928 119.303 442.56C119.791 442.184 120.375 441.996 121.055 441.996C121.855 441.996 122.483 442.224 122.939 442.68C123.395 443.136 123.623 443.796 123.623 444.66V446.964C123.623 447.108 123.655 447.212 123.719 447.276C123.783 447.34 123.879 447.372 124.007 447.372H124.283V448.5H123.947C123.579 448.5 123.279 448.412 123.047 448.236C122.815 448.06 122.667 447.824 122.603 447.528C122.475 447.84 122.227 448.104 121.859 448.32C121.499 448.536 121.079 448.644 120.599 448.644C120.167 448.644 119.775 448.572 119.423 448.428C119.071 448.284 118.791 448.076 118.583 447.804C118.383 447.524 118.283 447.2 118.283 446.832C118.283 446.416 118.379 446.076 118.571 445.812C118.763 445.548 119.031 445.344 119.375 445.2C119.727 445.048 120.183 444.92 120.743 444.816L122.351 444.516C122.343 444.068 122.219 443.728 121.979 443.496C121.747 443.264 121.431 443.148 121.031 443.148C120.695 443.148 120.411 443.24 120.179 443.424C119.947 443.608 119.795 443.844 119.723 444.132L118.391 444.048ZM119.615 446.784C119.623 447.008 119.723 447.192 119.915 447.336C120.115 447.472 120.403 447.54 120.779 447.54C121.075 447.54 121.343 447.472 121.583 447.336C121.831 447.2 122.023 447.004 122.159 446.748C122.303 446.492 122.375 446.188 122.375 445.836V445.584L121.091 445.812L120.875 445.848C120.571 445.904 120.335 445.96 120.167 446.016C119.999 446.072 119.863 446.16 119.759 446.28C119.663 446.4 119.615 446.568 119.615 446.784ZM128.178 448.164C127.634 448.164 127.154 448.036 126.738 447.78C126.33 447.516 126.014 447.156 125.79 446.7C125.566 446.244 125.454 445.724 125.454 445.14C125.454 444.524 125.566 443.98 125.79 443.508C126.022 443.028 126.342 442.656 126.75 442.392C127.166 442.128 127.642 441.996 128.178 441.996C128.594 441.996 128.954 442.096 129.258 442.296C129.57 442.488 129.802 442.76 129.954 443.112L129.966 442.14H131.178V447.744C131.17 448.632 130.918 449.304 130.422 449.76C129.926 450.216 129.238 450.444 128.358 450.444C127.886 450.444 127.462 450.368 127.086 450.216C126.718 450.064 126.41 449.848 126.162 449.568C125.914 449.296 125.742 448.976 125.646 448.608L126.966 448.524C127.086 448.788 127.262 448.992 127.494 449.136C127.734 449.28 128.022 449.352 128.358 449.352C128.846 449.352 129.226 449.236 129.498 449.004C129.77 448.772 129.906 448.44 129.906 448.008V447.132C129.738 447.46 129.494 447.716 129.174 447.9C128.862 448.076 128.53 448.164 128.178 448.164ZM126.786 445.128C126.786 445.52 126.85 445.864 126.978 446.16C127.106 446.456 127.29 446.688 127.53 446.856C127.77 447.024 128.054 447.108 128.382 447.108C128.694 447.108 128.966 447.024 129.198 446.856C129.438 446.688 129.622 446.456 129.75 446.16C129.886 445.864 129.954 445.52 129.954 445.128C129.962 444.736 129.902 444.392 129.774 444.096C129.646 443.792 129.462 443.556 129.222 443.388C128.99 443.22 128.71 443.136 128.382 443.136C128.054 443.136 127.77 443.22 127.53 443.388C127.29 443.556 127.106 443.792 126.978 444.096C126.85 444.392 126.786 444.736 126.786 445.128ZM135.53 448.644C134.946 448.644 134.426 448.508 133.97 448.236C133.522 447.956 133.174 447.568 132.926 447.072C132.678 446.568 132.554 445.984 132.554 445.32C132.554 444.656 132.678 444.076 132.926 443.58C133.174 443.076 133.522 442.688 133.97 442.416C134.426 442.136 134.946 441.996 135.53 441.996C136.114 441.996 136.63 442.136 137.078 442.416C137.534 442.688 137.886 443.076 138.134 443.58C138.382 444.076 138.506 444.656 138.506 445.32C138.506 445.984 138.382 446.568 138.134 447.072C137.886 447.568 137.534 447.956 137.078 448.236C136.63 448.508 136.114 448.644 135.53 448.644ZM135.53 447.48C136.05 447.48 136.454 447.292 136.742 446.916C137.03 446.532 137.174 446 137.174 445.32C137.174 444.64 137.03 444.108 136.742 443.724C136.454 443.34 136.05 443.148 135.53 443.148C135.01 443.148 134.606 443.34 134.318 443.724C134.03 444.108 133.886 444.64 133.886 445.32C133.886 446 134.03 446.532 134.318 446.916C134.606 447.292 135.01 447.48 135.53 447.48ZM144.045 444.144C143.981 443.832 143.821 443.588 143.565 443.412C143.309 443.236 143.001 443.148 142.641 443.148C142.329 443.148 142.065 443.224 141.849 443.376C141.641 443.52 141.541 443.72 141.549 443.976C141.549 444.144 141.605 444.284 141.717 444.396C141.829 444.5 141.965 444.584 142.125 444.648C142.293 444.704 142.525 444.768 142.821 444.84C142.893 444.856 142.957 444.872 143.013 444.888C143.501 445.008 143.913 445.144 144.249 445.296C144.585 445.448 144.861 445.652 145.077 445.908C145.293 446.156 145.401 446.464 145.401 446.832C145.401 447.424 145.161 447.876 144.681 448.188C144.201 448.492 143.593 448.644 142.857 448.644C142.353 448.644 141.893 448.556 141.477 448.38C141.061 448.196 140.725 447.94 140.469 447.612C140.213 447.284 140.069 446.904 140.037 446.472L141.381 446.4C141.413 446.616 141.493 446.808 141.621 446.976C141.757 447.144 141.933 447.272 142.149 447.36C142.365 447.44 142.601 447.48 142.857 447.48C143.209 447.48 143.497 447.428 143.721 447.324C143.953 447.212 144.069 447.028 144.069 446.772C144.069 446.612 144.013 446.484 143.901 446.388C143.797 446.292 143.665 446.216 143.505 446.16C143.345 446.104 143.133 446.044 142.869 445.98L142.605 445.92C141.861 445.744 141.277 445.512 140.853 445.224C140.429 444.936 140.217 444.532 140.217 444.012C140.217 443.604 140.329 443.248 140.553 442.944C140.785 442.64 141.093 442.408 141.477 442.248C141.861 442.08 142.285 441.996 142.749 441.996C143.429 441.996 144.009 442.184 144.489 442.56C144.969 442.936 145.261 443.44 145.365 444.072L144.045 444.144ZM158.844 439.26C158.068 440.348 157.548 441.48 157.284 442.656C157.02 443.832 157.02 445.008 157.284 446.184C157.548 447.36 158.068 448.492 158.844 449.58H157.668C156.796 448.492 156.212 447.36 155.916 446.184C155.62 445.008 155.62 443.832 155.916 442.656C156.212 441.48 156.796 440.348 157.668 439.26H158.844ZM163.183 439.98L165.775 446.46V439.98H167.083V448.5H165.343L162.847 442.272V448.5H161.551V439.98H163.183ZM173.774 448.5L173.558 446.688L173.834 446.844C173.698 447.436 173.434 447.892 173.042 448.212C172.658 448.532 172.17 448.692 171.578 448.692C170.914 448.692 170.334 448.512 169.838 448.152C169.342 447.784 168.958 447.268 168.686 446.604C168.422 445.932 168.29 445.148 168.29 444.252C168.29 443.356 168.422 442.572 168.686 441.9C168.958 441.22 169.342 440.7 169.838 440.34C170.334 439.972 170.914 439.788 171.578 439.788C172.074 439.788 172.53 439.904 172.946 440.136C173.362 440.36 173.718 440.68 174.014 441.096C174.31 441.512 174.522 442.008 174.65 442.584L173.282 442.668C173.162 442.156 172.95 441.752 172.646 441.456C172.342 441.16 171.986 441.012 171.578 441.012C171.17 441.012 170.822 441.14 170.534 441.396C170.254 441.652 170.038 442.024 169.886 442.512C169.734 442.992 169.658 443.572 169.658 444.252C169.658 444.932 169.734 445.512 169.886 445.992C170.038 446.472 170.254 446.84 170.534 447.096C170.822 447.344 171.17 447.468 171.578 447.468C171.914 447.468 172.21 447.376 172.466 447.192C172.722 447 172.926 446.74 173.078 446.412C173.238 446.084 173.33 445.712 173.354 445.296H171.542V444.132H174.662V448.5H173.774ZM178.534 442.656C178.27 441.48 177.75 440.348 176.974 439.26H178.15C179.022 440.348 179.606 441.48 179.902 442.656C180.198 443.832 180.198 445.008 179.902 446.184C179.606 447.36 179.022 448.492 178.15 449.58H176.974C177.75 448.492 178.27 447.36 178.534 446.184C178.798 445.008 178.798 443.832 178.534 442.656ZM185.789 450.432H185.093L185.741 448.5H186.689L185.789 450.432ZM186.689 446.94V448.5H185.105V446.94H186.689ZM199.232 439.98L200.504 446.772H200.084L201.344 439.98H203.24V448.5H201.932V441.6H201.98L200.768 447.9H199.808L198.596 441.6H198.644V448.5H197.336V439.98H199.232ZM204.735 444.048C204.855 443.424 205.159 442.928 205.647 442.56C206.135 442.184 206.719 441.996 207.399 441.996C208.199 441.996 208.827 442.224 209.283 442.68C209.739 443.136 209.967 443.796 209.967 444.66V446.964C209.967 447.108 209.999 447.212 210.063 447.276C210.127 447.34 210.223 447.372 210.351 447.372H210.627V448.5H210.291C209.923 448.5 209.623 448.412 209.391 448.236C209.159 448.06 209.011 447.824 208.947 447.528C208.819 447.84 208.571 448.104 208.203 448.32C207.843 448.536 207.423 448.644 206.943 448.644C206.511 448.644 206.119 448.572 205.767 448.428C205.415 448.284 205.135 448.076 204.927 447.804C204.727 447.524 204.627 447.2 204.627 446.832C204.627 446.416 204.723 446.076 204.915 445.812C205.107 445.548 205.375 445.344 205.719 445.2C206.071 445.048 206.527 444.92 207.087 444.816L208.695 444.516C208.687 444.068 208.563 443.728 208.323 443.496C208.091 443.264 207.775 443.148 207.375 443.148C207.039 443.148 206.755 443.24 206.523 443.424C206.291 443.608 206.139 443.844 206.067 444.132L204.735 444.048ZM205.959 446.784C205.967 447.008 206.067 447.192 206.259 447.336C206.459 447.472 206.747 447.54 207.123 447.54C207.419 447.54 207.687 447.472 207.927 447.336C208.175 447.2 208.367 447.004 208.503 446.748C208.647 446.492 208.719 446.188 208.719 445.836V445.584L207.435 445.812L207.219 445.848C206.915 445.904 206.679 445.96 206.511 446.016C206.343 446.072 206.207 446.16 206.103 446.28C206.007 446.4 205.959 446.568 205.959 446.784ZM214.57 442.14L214.702 443.796L214.594 443.7C214.666 443.164 214.834 442.772 215.098 442.524C215.37 442.268 215.75 442.14 216.238 442.14H217.558V443.256H216.31C215.998 443.256 215.742 443.312 215.542 443.424C215.342 443.536 215.194 443.704 215.098 443.928C215.01 444.144 214.966 444.424 214.966 444.768V448.5H213.694V442.14H214.57ZM214.366 442.14V443.256H212.074V442.14H214.366ZM216.958 447.372V448.5H212.074V447.372H216.958ZM220.205 442.14L221.945 447.012L223.625 442.14H224.969L222.437 449.184C222.301 449.568 222.101 449.848 221.837 450.024C221.573 450.208 221.233 450.3 220.817 450.3H219.929V449.196H220.661C220.829 449.196 220.961 449.16 221.057 449.088C221.161 449.024 221.245 448.916 221.309 448.764L221.513 448.26H221.129L218.849 442.14H220.205ZM231.997 447.372V448.5H226.609V447.372H231.997ZM228.793 448.5V441.816C228.793 441.568 228.737 441.388 228.625 441.276C228.513 441.156 228.341 441.096 228.109 441.096H226.609V439.98H228.109C228.741 439.98 229.221 440.136 229.549 440.448C229.885 440.76 230.053 441.216 230.053 441.816V448.5H228.793ZM233.516 444.048C233.636 443.424 233.94 442.928 234.428 442.56C234.916 442.184 235.5 441.996 236.18 441.996C236.98 441.996 237.608 442.224 238.064 442.68C238.52 443.136 238.748 443.796 238.748 444.66V446.964C238.748 447.108 238.78 447.212 238.844 447.276C238.908 447.34 239.004 447.372 239.132 447.372H239.408V448.5H239.072C238.704 448.5 238.404 448.412 238.172 448.236C237.94 448.06 237.792 447.824 237.728 447.528C237.6 447.84 237.352 448.104 236.984 448.32C236.624 448.536 236.204 448.644 235.724 448.644C235.292 448.644 234.9 448.572 234.548 448.428C234.196 448.284 233.916 448.076 233.708 447.804C233.508 447.524 233.408 447.2 233.408 446.832C233.408 446.416 233.504 446.076 233.696 445.812C233.888 445.548 234.156 445.344 234.5 445.2C234.852 445.048 235.308 444.92 235.868 444.816L237.476 444.516C237.468 444.068 237.344 443.728 237.104 443.496C236.872 443.264 236.556 443.148 236.156 443.148C235.82 443.148 235.536 443.24 235.304 443.424C235.072 443.608 234.92 443.844 234.848 444.132L233.516 444.048ZM234.74 446.784C234.748 447.008 234.848 447.192 235.04 447.336C235.24 447.472 235.528 447.54 235.904 447.54C236.2 447.54 236.468 447.472 236.708 447.336C236.956 447.2 237.148 447.004 237.284 446.748C237.428 446.492 237.5 446.188 237.5 445.836V445.584L236.216 445.812L236 445.848C235.696 445.904 235.46 445.96 235.292 446.016C235.124 446.072 234.988 446.16 234.884 446.28C234.788 446.4 234.74 446.568 234.74 446.784ZM242.139 442.14L242.211 443.904L242.019 443.796C242.115 443.204 242.343 442.756 242.703 442.452C243.071 442.148 243.519 441.996 244.047 441.996C244.719 441.996 245.231 442.216 245.583 442.656C245.943 443.096 246.123 443.68 246.123 444.408V448.5H244.851V444.708C244.851 444.148 244.755 443.732 244.563 443.46C244.379 443.18 244.083 443.04 243.675 443.04C243.235 443.04 242.887 443.184 242.631 443.472C242.375 443.752 242.247 444.164 242.247 444.708V448.5H240.987V442.14H242.139ZM252.083 439.98H253.355V448.5H252.167L252.131 447.6C251.955 447.936 251.703 448.196 251.375 448.38C251.055 448.556 250.667 448.644 250.211 448.644C249.651 448.644 249.175 448.496 248.783 448.2C248.391 447.904 248.095 447.504 247.895 447C247.703 446.496 247.607 445.936 247.607 445.32C247.607 444.704 247.703 444.144 247.895 443.64C248.095 443.136 248.391 442.736 248.783 442.44C249.175 442.144 249.651 441.996 250.211 441.996C250.651 441.996 251.023 442.08 251.327 442.248C251.639 442.416 251.891 442.664 252.083 442.992V439.98ZM252.011 446.4C252.131 446.072 252.191 445.712 252.191 445.32C252.191 444.912 252.131 444.544 252.011 444.216C251.899 443.88 251.719 443.612 251.471 443.412C251.231 443.212 250.931 443.112 250.571 443.112C250.027 443.112 249.619 443.32 249.347 443.736C249.075 444.152 248.939 444.68 248.939 445.32C248.939 445.936 249.075 446.452 249.347 446.868C249.619 447.276 250.027 447.48 250.571 447.48C250.931 447.48 251.231 447.384 251.471 447.192C251.719 446.992 251.899 446.728 252.011 446.4ZM266.773 439.26C265.997 440.348 265.477 441.48 265.213 442.656C264.949 443.832 264.949 445.008 265.213 446.184C265.477 447.36 265.997 448.492 266.773 449.58H265.597C264.725 448.492 264.141 447.36 263.845 446.184C263.549 445.008 263.549 443.832 263.845 442.656C264.141 441.48 264.725 440.348 265.597 439.26H266.773ZM275.157 445.488C275.157 446.488 274.901 447.272 274.389 447.84C273.877 448.408 273.161 448.692 272.241 448.692C271.321 448.692 270.605 448.408 270.093 447.84C269.589 447.272 269.337 446.488 269.337 445.488V439.968H270.633V445.572C270.633 446.18 270.769 446.648 271.041 446.976C271.313 447.304 271.713 447.468 272.241 447.468C272.769 447.468 273.169 447.304 273.441 446.976C273.713 446.648 273.849 446.18 273.849 445.572V439.968H275.157V445.488ZM277.696 445.644C277.768 446.004 277.888 446.32 278.056 446.592C278.232 446.856 278.46 447.06 278.74 447.204C279.028 447.348 279.352 447.42 279.712 447.42C280.008 447.42 280.268 447.376 280.492 447.288C280.716 447.192 280.888 447.056 281.008 446.88C281.136 446.704 281.196 446.492 281.188 446.244C281.188 445.876 281.024 445.568 280.696 445.32C280.368 445.072 279.852 444.856 279.148 444.672C278.356 444.472 277.724 444.176 277.252 443.784C276.78 443.384 276.544 442.868 276.544 442.236C276.544 441.74 276.66 441.308 276.892 440.94C277.132 440.572 277.46 440.288 277.876 440.088C278.3 439.888 278.78 439.788 279.316 439.788C279.876 439.788 280.376 439.904 280.816 440.136C281.264 440.368 281.624 440.692 281.896 441.108C282.168 441.524 282.336 442 282.4 442.536L281.056 442.62C281.016 442.3 280.912 442.02 280.744 441.78C280.584 441.532 280.376 441.344 280.12 441.216C279.872 441.08 279.592 441.012 279.28 441.012C278.872 441.012 278.532 441.128 278.26 441.36C277.996 441.584 277.872 441.88 277.888 442.248C277.888 442.512 277.972 442.732 278.14 442.908C278.308 443.076 278.512 443.208 278.752 443.304C278.992 443.4 279.316 443.504 279.724 443.616C279.748 443.616 279.78 443.62 279.82 443.628C280.636 443.844 281.292 444.168 281.788 444.6C282.284 445.024 282.532 445.544 282.532 446.16C282.532 446.68 282.4 447.128 282.136 447.504C281.872 447.88 281.52 448.164 281.08 448.356C280.64 448.548 280.164 448.644 279.652 448.644C279.044 448.644 278.5 448.524 278.02 448.284C277.54 448.036 277.152 447.696 276.856 447.264C276.568 446.824 276.404 446.312 276.364 445.728L277.696 445.644ZM286.463 442.656C286.199 441.48 285.679 440.348 284.903 439.26H286.079C286.951 440.348 287.535 441.48 287.831 442.656C288.127 443.832 288.127 445.008 287.831 446.184C287.535 447.36 286.951 448.492 286.079 449.58H284.903C285.679 448.492 286.199 447.36 286.463 446.184C286.727 445.008 286.727 443.832 286.463 442.656Z" fill="#A6A6A6"/>
<path d="M24 445.32H31.2V445.92H24V445.32ZM31.1953 445.32H38.3953V445.92H31.1953V445.32ZM38.3906 445.32H45.5906V445.92H38.3906V445.32ZM45.5859 445.32H52.7859V445.92H45.5859V445.32ZM52.7812 445.32H59.9813V445.92H52.7812V445.32ZM59.9766 445.32H67.1766V445.92H59.9766V445.32ZM67.1719 445.32H74.3719V445.92H67.1719V445.32ZM74.3672 445.32H81.5672V445.92H74.3672V445.32ZM81.5625 445.32H88.7625V445.92H81.5625V445.32ZM88.7578 445.32H95.9578V445.92H88.7578V445.32ZM95.9531 445.32H103.153V445.92H95.9531V445.32ZM103.148 445.32H110.348V445.92H103.148V445.32ZM110.344 445.32H117.544V445.92H110.344V445.32ZM117.539 445.32H124.739V445.92H117.539V445.32ZM124.734 445.32H131.934V445.92H124.734V445.32ZM131.93 445.32H139.13V445.92H131.93V445.32ZM139.125 445.32H146.325V445.92H139.125V445.32ZM146.32 445.32H153.52V445.92H146.32V445.32ZM153.516 445.32H160.716V445.92H153.516V445.32ZM160.711 445.32H167.911V445.92H160.711V445.32ZM167.906 445.32H175.106V445.92H167.906V445.32ZM175.102 445.32H182.302V445.92H175.102V445.32ZM182.297 445.32H189.497V445.92H182.297V445.32Z" fill="#A6A6A6"/>
<defs>
<linearGradient id="paint0_linear_347_417" x1="182.755" y1="142.644" x2="182.755" y2="165.902" gradientUnits="userSpaceOnUse">
<stop stop-color="#3D3D3D"/>
<stop offset="1" stop-color="#985C30"/>
</linearGradient>
<clipPath id="clip0_347_417">
<rect width="320" height="321" fill="white" transform="translate(24 24.5)"/>
</clipPath>
<clipPath id="clip1_347_417">
<rect x="160" y="166.097" width="15.2889" height="24.2533" rx="7.64444" fill="white"/>
</clipPath>
<clipPath id="clip2_347_417">
<rect x="193.778" y="166.097" width="15.2889" height="24.2533" rx="7.64444" fill="white"/>
</clipPath>
</defs>
</svg>
