<svg width="768" height="492" viewBox="0 0 768 492" fill="none" xmlns="http://www.w3.org/2000/svg">
<g clip-path="url(#clip0_347_822)">
<rect x="6.73901" y="6.73907" width="220.706" height="478.478" rx="32.5725" fill="white"/>
<rect x="74.0579" y="477.822" width="85.3623" height="2.80797" rx="1.40399" fill="black"/>
<rect opacity="0.35" x="194.437" y="19.5488" width="13.4783" height="6.73913" rx="2.13406" stroke="black" stroke-width="0.561594"/>
<path opacity="0.4" d="M208.701 21.8888V24.1352C209.153 23.9449 209.447 23.5023 209.447 23.012C209.447 22.5216 209.153 22.079 208.701 21.8888Z" fill="black"/>
<rect x="195.279" y="20.3912" width="11.7935" height="5.05435" rx="1.40399" fill="black"/>
<path fill-rule="evenodd" clip-rule="evenodd" d="M184.917 21.1275C186.313 21.1275 187.657 21.6358 188.669 22.5472C188.745 22.6175 188.867 22.6166 188.942 22.5452L189.671 21.8488C189.709 21.8125 189.73 21.7634 189.73 21.7123C189.729 21.6612 189.708 21.6124 189.669 21.5766C187.012 19.1652 182.821 19.1652 180.164 21.5766C180.125 21.6124 180.103 21.6612 180.103 21.7123C180.103 21.7634 180.124 21.8125 180.162 21.8488L180.891 22.5452C180.966 22.6167 181.088 22.6176 181.164 22.5472C182.176 21.6357 183.52 21.1275 184.917 21.1275ZM184.916 23.4537C185.678 23.4536 186.413 23.7357 186.978 24.245C187.054 24.3173 187.175 24.3158 187.249 24.2415L187.972 23.5143C188.01 23.4762 188.031 23.4244 188.031 23.3707C188.03 23.3169 188.008 23.2656 187.969 23.2282C186.249 21.6348 183.584 21.6348 181.863 23.2282C181.824 23.2656 181.802 23.3169 181.802 23.3707C181.801 23.4245 181.822 23.4762 181.861 23.5143L182.583 24.2415C182.658 24.3158 182.778 24.3173 182.855 24.245C183.419 23.736 184.154 23.454 184.916 23.4537ZM186.332 24.9934C186.333 25.0515 186.312 25.1075 186.275 25.1482L185.052 26.5012C185.016 26.541 184.967 26.5633 184.916 26.5633C184.865 26.5633 184.817 26.541 184.781 26.5012L183.558 25.1482C183.52 25.1075 183.5 25.0515 183.501 24.9934C183.502 24.9353 183.525 24.8803 183.564 24.8414C184.345 24.1172 185.488 24.1172 186.269 24.8414C186.308 24.8804 186.331 24.9354 186.332 24.9934Z" fill="black"/>
<path fill-rule="evenodd" clip-rule="evenodd" d="M175.891 20.3436C175.891 19.9947 175.623 19.7119 175.292 19.7119H174.693C174.362 19.7119 174.094 19.9947 174.094 20.3436V25.8192C174.094 26.1681 174.362 26.451 174.693 26.451H175.292C175.623 26.451 175.891 26.1681 175.891 25.8192V20.3436ZM171.716 21.0597H172.315C172.646 21.0597 172.915 21.3493 172.915 21.7066V25.804C172.915 26.1613 172.646 26.451 172.315 26.451H171.716C171.386 26.451 171.117 26.1613 171.117 25.804V21.7066C171.117 21.3493 171.386 21.0597 171.716 21.0597ZM169.283 22.5198H168.684C168.353 22.5198 168.085 22.8132 168.085 23.175V25.7958C168.085 26.1576 168.353 26.451 168.684 26.451H169.283C169.614 26.451 169.882 26.1576 169.882 25.7958V23.175C169.882 22.8132 169.614 22.5198 169.283 22.5198ZM166.306 23.8677H165.707C165.377 23.8677 165.108 24.1568 165.108 24.5135V25.8052C165.108 26.1618 165.377 26.451 165.707 26.451H166.306C166.637 26.451 166.905 26.1618 166.905 25.8052V24.5135C166.905 24.1568 166.637 23.8677 166.306 23.8677Z" fill="black"/>
<path d="M35.243 26.5271V20.9844H35.1591L33.4856 22.1638V21.0357L35.243 19.8003H36.4411V26.5271H35.243ZM40.7438 26.6623C40.2528 26.6623 39.8223 26.5799 39.4525 26.4152C39.0858 26.2505 38.7952 26.0221 38.5808 25.73C38.3695 25.4347 38.2483 25.0944 38.2172 24.709L38.2125 24.6531H39.3593L39.3639 24.7044C39.3857 24.894 39.4556 25.0633 39.5737 25.2125C39.6918 25.3586 39.8503 25.4736 40.0492 25.5575C40.2481 25.6383 40.4796 25.6787 40.7438 25.6787C41.0017 25.6787 41.2271 25.6336 41.4197 25.5435C41.6155 25.4534 41.7678 25.3291 41.8766 25.1706C41.9854 25.0121 42.0397 24.8287 42.0397 24.6205V24.6112C42.0397 24.2569 41.917 23.9849 41.6715 23.7954C41.426 23.6058 41.0872 23.511 40.6552 23.511H39.8581V22.616H40.6319C40.8774 22.616 41.0934 22.5724 41.2799 22.4854C41.4664 22.3984 41.6109 22.2803 41.7134 22.1311C41.816 21.9789 41.8673 21.8048 41.8673 21.609V21.5997C41.8673 21.3915 41.8222 21.2144 41.7321 21.0683C41.6451 20.9222 41.5161 20.8103 41.3452 20.7326C41.1773 20.6549 40.9738 20.6161 40.7345 20.6161C40.4983 20.6161 40.2885 20.6565 40.1052 20.7373C39.9249 20.8181 39.7804 20.9331 39.6716 21.0823C39.5628 21.2283 39.4976 21.4008 39.4758 21.5997L39.4712 21.6463H38.357L38.3617 21.5904C38.3959 21.2019 38.514 20.8647 38.716 20.5788C38.9211 20.2898 39.1946 20.066 39.5364 19.9075C39.8814 19.7459 40.2807 19.6651 40.7345 19.6651C41.1975 19.6651 41.6 19.7413 41.9419 19.8935C42.2837 20.0427 42.5479 20.2494 42.7343 20.5135C42.9239 20.7777 43.0187 21.0869 43.0187 21.4412V21.4505C43.0187 21.7271 42.9565 21.9726 42.8322 22.1871C42.711 22.3984 42.5432 22.574 42.3288 22.7139C42.1174 22.8537 41.8766 22.9516 41.6062 23.0075V23.0308C42.1035 23.0775 42.5028 23.2422 42.8043 23.525C43.1057 23.8047 43.2564 24.1776 43.2564 24.6438V24.6531C43.2564 25.0447 43.1508 25.3928 42.9394 25.6973C42.7281 25.9988 42.4329 26.235 42.0537 26.4059C41.6777 26.5768 41.241 26.6623 40.7438 26.6623ZM45.4148 25.6227C45.2035 25.6227 45.0263 25.5528 44.8834 25.413C44.7435 25.27 44.6736 25.096 44.6736 24.8909C44.6736 24.6826 44.7435 24.5086 44.8834 24.3687C45.0263 24.2258 45.2035 24.1543 45.4148 24.1543C45.6292 24.1543 45.8064 24.2258 45.9462 24.3687C46.0861 24.5086 46.156 24.6826 46.156 24.8909C46.156 25.096 46.0861 25.27 45.9462 25.413C45.8064 25.5528 45.6292 25.6227 45.4148 25.6227ZM45.4148 22.1638C45.2035 22.1638 45.0263 22.0939 44.8834 21.954C44.7435 21.811 44.6736 21.637 44.6736 21.4319C44.6736 21.2237 44.7435 21.0496 44.8834 20.9098C45.0263 20.7668 45.2035 20.6954 45.4148 20.6954C45.6292 20.6954 45.8064 20.7668 45.9462 20.9098C46.0861 21.0496 46.156 21.2237 46.156 21.4319C46.156 21.637 46.0861 21.811 45.9462 21.954C45.8064 22.0939 45.6292 22.1638 45.4148 22.1638ZM49.3399 26.5271V20.9844H49.256L47.5825 22.1638V21.0357L49.3399 19.8003H50.538V26.5271H49.3399ZM54.8407 26.6623C54.3497 26.6623 53.9192 26.5799 53.5494 26.4152C53.1827 26.2505 52.8921 26.0221 52.6777 25.73C52.4663 25.4347 52.3451 25.0944 52.3141 24.709L52.3094 24.6531H53.4562L53.4608 24.7044C53.4826 24.894 53.5525 25.0633 53.6706 25.2125C53.7887 25.3586 53.9472 25.4736 54.1461 25.5575C54.345 25.6383 54.5765 25.6787 54.8407 25.6787C55.0986 25.6787 55.3239 25.6336 55.5166 25.5435C55.7124 25.4534 55.8647 25.3291 55.9735 25.1706C56.0822 25.0121 56.1366 24.8287 56.1366 24.6205V24.6112C56.1366 24.2569 56.0139 23.9849 55.7684 23.7954C55.5228 23.6058 55.1841 23.511 54.7521 23.511H53.955V22.616H54.7288C54.9743 22.616 55.1903 22.5724 55.3768 22.4854C55.5632 22.3984 55.7078 22.2803 55.8103 22.1311C55.9129 21.9789 55.9642 21.8048 55.9642 21.609V21.5997C55.9642 21.3915 55.9191 21.2144 55.829 21.0683C55.7419 20.9222 55.613 20.8103 55.442 20.7326C55.2742 20.6549 55.0707 20.6161 54.8314 20.6161C54.5952 20.6161 54.3854 20.6565 54.202 20.7373C54.0218 20.8181 53.8773 20.9331 53.7685 21.0823C53.6597 21.2283 53.5945 21.4008 53.5727 21.5997L53.5681 21.6463H52.4539L52.4586 21.5904C52.4928 21.2019 52.6109 20.8647 52.8129 20.5788C53.018 20.2898 53.2915 20.066 53.6333 19.9075C53.9783 19.7459 54.3776 19.6651 54.8314 19.6651C55.2944 19.6651 55.6969 19.7413 56.0387 19.8935C56.3806 20.0427 56.6448 20.2494 56.8312 20.5135C57.0208 20.7777 57.1156 21.0869 57.1156 21.4412V21.4505C57.1156 21.7271 57.0534 21.9726 56.9291 22.1871C56.8079 22.3984 56.6401 22.574 56.4257 22.7139C56.2143 22.8537 55.9735 22.9516 55.7031 23.0075V23.0308C56.2003 23.0775 56.5997 23.2422 56.9011 23.525C57.2026 23.8047 57.3533 24.1776 57.3533 24.6438V24.6531C57.3533 25.0447 57.2477 25.3928 57.0363 25.6973C56.825 25.9988 56.5298 26.235 56.1506 26.4059C55.7746 26.5768 55.3379 26.6623 54.8407 26.6623Z" fill="black"/>
</g>
<rect x="81.1504" y="13.1019" width="70.1993" height="20.5937" rx="10.2968" fill="black"/>
<rect x="4.77343" y="4.7735" width="224.638" height="482.409" rx="34.538" stroke="black" stroke-width="3.93116"/>
<rect x="1.40388" y="1.40394" width="231.377" height="489.148" rx="37.9076" stroke="black" stroke-width="2.80797"/>
<g clip-path="url(#clip1_347_822)">
<rect x="273.45" y="6.73907" width="220.706" height="478.478" rx="32.5725" fill="white"/>
<rect x="340.769" y="477.822" width="85.3623" height="2.80797" rx="1.40399" fill="black"/>
<rect opacity="0.35" x="461.148" y="19.5488" width="13.4783" height="6.73913" rx="2.13406" stroke="black" stroke-width="0.561594"/>
<path opacity="0.4" d="M475.412 21.8888V24.1352C475.864 23.9449 476.158 23.5023 476.158 23.012C476.158 22.5216 475.864 22.079 475.412 21.8888Z" fill="black"/>
<rect x="461.99" y="20.3912" width="11.7935" height="5.05435" rx="1.40399" fill="black"/>
<path fill-rule="evenodd" clip-rule="evenodd" d="M451.628 21.1275C453.025 21.1275 454.368 21.6358 455.38 22.5472C455.456 22.6175 455.578 22.6166 455.653 22.5452L456.382 21.8488C456.42 21.8125 456.441 21.7634 456.441 21.7123C456.441 21.6612 456.419 21.6124 456.38 21.5766C453.723 19.1652 449.532 19.1652 446.875 21.5766C446.836 21.6124 446.815 21.6612 446.814 21.7123C446.814 21.7634 446.835 21.8125 446.873 21.8488L447.602 22.5452C447.677 22.6167 447.799 22.6176 447.875 22.5472C448.887 21.6357 450.231 21.1275 451.628 21.1275ZM451.627 23.4537C452.389 23.4536 453.124 23.7357 453.689 24.245C453.766 24.3173 453.886 24.3158 453.961 24.2415L454.683 23.5143C454.722 23.4762 454.743 23.4244 454.742 23.3707C454.742 23.3169 454.719 23.2656 454.681 23.2282C452.96 21.6348 450.295 21.6348 448.575 23.2282C448.536 23.2656 448.514 23.3169 448.513 23.3707C448.513 23.4245 448.534 23.4762 448.572 23.5143L449.295 24.2415C449.369 24.3158 449.49 24.3173 449.566 24.245C450.131 23.736 450.865 23.454 451.627 23.4537ZM453.043 24.9934C453.044 25.0515 453.023 25.1075 452.986 25.1482L451.763 26.5012C451.727 26.541 451.679 26.5633 451.628 26.5633C451.577 26.5633 451.528 26.541 451.492 26.5012L450.269 25.1482C450.232 25.1075 450.211 25.0515 450.212 24.9934C450.213 24.9353 450.236 24.8803 450.275 24.8414C451.056 24.1172 452.199 24.1172 452.98 24.8414C453.019 24.8804 453.042 24.9354 453.043 24.9934Z" fill="black"/>
<path fill-rule="evenodd" clip-rule="evenodd" d="M442.602 20.3436C442.602 19.9947 442.334 19.7119 442.003 19.7119H441.404C441.074 19.7119 440.805 19.9947 440.805 20.3436V25.8192C440.805 26.1681 441.074 26.451 441.404 26.451H442.003C442.334 26.451 442.602 26.1681 442.602 25.8192V20.3436ZM438.428 21.0597H439.027C439.358 21.0597 439.626 21.3493 439.626 21.7066V25.804C439.626 26.1613 439.358 26.451 439.027 26.451H438.428C438.097 26.451 437.829 26.1613 437.829 25.804V21.7066C437.829 21.3493 438.097 21.0597 438.428 21.0597ZM435.994 22.5198H435.395C435.064 22.5198 434.796 22.8132 434.796 23.175V25.7958C434.796 26.1576 435.064 26.451 435.395 26.451H435.994C436.325 26.451 436.593 26.1576 436.593 25.7958V23.175C436.593 22.8132 436.325 22.5198 435.994 22.5198ZM433.018 23.8677H432.419C432.088 23.8677 431.82 24.1568 431.82 24.5135V25.8052C431.82 26.1618 432.088 26.451 432.419 26.451H433.018C433.349 26.451 433.617 26.1618 433.617 25.8052V24.5135C433.617 24.1568 433.349 23.8677 433.018 23.8677Z" fill="black"/>
<path d="M301.954 26.5271V20.9844H301.87L300.197 22.1638V21.0357L301.954 19.8003H303.152V26.5271H301.954ZM307.455 26.6623C306.964 26.6623 306.534 26.5799 306.164 26.4152C305.797 26.2505 305.506 26.0221 305.292 25.73C305.081 25.4347 304.959 25.0944 304.928 24.709L304.924 24.6531H306.07L306.075 24.7044C306.097 24.894 306.167 25.0633 306.285 25.2125C306.403 25.3586 306.561 25.4736 306.76 25.5575C306.959 25.6383 307.191 25.6787 307.455 25.6787C307.713 25.6787 307.938 25.6336 308.131 25.5435C308.327 25.4534 308.479 25.3291 308.588 25.1706C308.697 25.0121 308.751 24.8287 308.751 24.6205V24.6112C308.751 24.2569 308.628 23.9849 308.383 23.7954C308.137 23.6058 307.798 23.511 307.366 23.511H306.569V22.616H307.343C307.589 22.616 307.805 22.5724 307.991 22.4854C308.178 22.3984 308.322 22.2803 308.425 22.1311C308.527 21.9789 308.578 21.8048 308.578 21.609V21.5997C308.578 21.3915 308.533 21.2144 308.443 21.0683C308.356 20.9222 308.227 20.8103 308.056 20.7326C307.889 20.6549 307.685 20.6161 307.446 20.6161C307.209 20.6161 307 20.6565 306.816 20.7373C306.636 20.8181 306.492 20.9331 306.383 21.0823C306.274 21.2283 306.209 21.4008 306.187 21.5997L306.182 21.6463H305.068L305.073 21.5904C305.107 21.2019 305.225 20.8647 305.427 20.5788C305.632 20.2898 305.906 20.066 306.248 19.9075C306.593 19.7459 306.992 19.6651 307.446 19.6651C307.909 19.6651 308.311 19.7413 308.653 19.8935C308.995 20.0427 309.259 20.2494 309.446 20.5135C309.635 20.7777 309.73 21.0869 309.73 21.4412V21.4505C309.73 21.7271 309.668 21.9726 309.543 22.1871C309.422 22.3984 309.254 22.574 309.04 22.7139C308.829 22.8537 308.588 22.9516 308.317 23.0075V23.0308C308.815 23.0775 309.214 23.2422 309.515 23.525C309.817 23.8047 309.968 24.1776 309.968 24.6438V24.6531C309.968 25.0447 309.862 25.3928 309.651 25.6973C309.439 25.9988 309.144 26.235 308.765 26.4059C308.389 26.5768 307.952 26.6623 307.455 26.6623ZM312.126 25.6227C311.915 25.6227 311.738 25.5528 311.595 25.413C311.455 25.27 311.385 25.096 311.385 24.8909C311.385 24.6826 311.455 24.5086 311.595 24.3687C311.738 24.2258 311.915 24.1543 312.126 24.1543C312.34 24.1543 312.518 24.2258 312.657 24.3687C312.797 24.5086 312.867 24.6826 312.867 24.8909C312.867 25.096 312.797 25.27 312.657 25.413C312.518 25.5528 312.34 25.6227 312.126 25.6227ZM312.126 22.1638C311.915 22.1638 311.738 22.0939 311.595 21.954C311.455 21.811 311.385 21.637 311.385 21.4319C311.385 21.2237 311.455 21.0496 311.595 20.9098C311.738 20.7668 311.915 20.6954 312.126 20.6954C312.34 20.6954 312.518 20.7668 312.657 20.9098C312.797 21.0496 312.867 21.2237 312.867 21.4319C312.867 21.637 312.797 21.811 312.657 21.954C312.518 22.0939 312.34 22.1638 312.126 22.1638ZM316.051 26.5271V20.9844H315.967L314.294 22.1638V21.0357L316.051 19.8003H317.249V26.5271H316.051ZM321.552 26.6623C321.061 26.6623 320.63 26.5799 320.261 26.4152C319.894 26.2505 319.603 26.0221 319.389 25.73C319.178 25.4347 319.056 25.0944 319.025 24.709L319.021 24.6531H320.167L320.172 24.7044C320.194 24.894 320.264 25.0633 320.382 25.2125C320.5 25.3586 320.658 25.4736 320.857 25.5575C321.056 25.6383 321.288 25.6787 321.552 25.6787C321.81 25.6787 322.035 25.6336 322.228 25.5435C322.424 25.4534 322.576 25.3291 322.685 25.1706C322.793 25.0121 322.848 24.8287 322.848 24.6205V24.6112C322.848 24.2569 322.725 23.9849 322.48 23.7954C322.234 23.6058 321.895 23.511 321.463 23.511H320.666V22.616H321.44C321.686 22.616 321.901 22.5724 322.088 22.4854C322.274 22.3984 322.419 22.2803 322.521 22.1311C322.624 21.9789 322.675 21.8048 322.675 21.609V21.5997C322.675 21.3915 322.63 21.2144 322.54 21.0683C322.453 20.9222 322.324 20.8103 322.153 20.7326C321.985 20.6549 321.782 20.6161 321.543 20.6161C321.306 20.6161 321.097 20.6565 320.913 20.7373C320.733 20.8181 320.588 20.9331 320.48 21.0823C320.371 21.2283 320.306 21.4008 320.284 21.5997L320.279 21.6463H319.165L319.17 21.5904C319.204 21.2019 319.322 20.8647 319.524 20.5788C319.729 20.2898 320.003 20.066 320.344 19.9075C320.689 19.7459 321.089 19.6651 321.543 19.6651C322.006 19.6651 322.408 19.7413 322.75 19.8935C323.092 20.0427 323.356 20.2494 323.542 20.5135C323.732 20.7777 323.827 21.0869 323.827 21.4412V21.4505C323.827 21.7271 323.765 21.9726 323.64 22.1871C323.519 22.3984 323.351 22.574 323.137 22.7139C322.926 22.8537 322.685 22.9516 322.414 23.0075V23.0308C322.912 23.0775 323.311 23.2422 323.612 23.525C323.914 23.8047 324.065 24.1776 324.065 24.6438V24.6531C324.065 25.0447 323.959 25.3928 323.748 25.6973C323.536 25.9988 323.241 26.235 322.862 26.4059C322.486 26.5768 322.049 26.6623 321.552 26.6623Z" fill="black"/>
</g>
<rect x="347.861" y="13.1019" width="70.1993" height="20.5937" rx="10.2968" fill="black"/>
<rect x="271.485" y="4.7735" width="224.638" height="482.409" rx="34.538" stroke="black" stroke-width="3.93116"/>
<rect x="268.115" y="1.40394" width="231.377" height="489.148" rx="37.9076" stroke="black" stroke-width="2.80797"/>
<g clip-path="url(#clip2_347_822)">
<rect x="540.161" y="6.73907" width="220.706" height="478.478" rx="32.5725" fill="white"/>
<rect x="607.48" y="477.822" width="85.3623" height="2.80797" rx="1.40399" fill="black"/>
<rect opacity="0.35" x="727.858" y="19.5488" width="13.4783" height="6.73913" rx="2.13406" stroke="black" stroke-width="0.561594"/>
<path opacity="0.4" d="M742.123 21.8888V24.1352C742.575 23.9449 742.869 23.5023 742.869 23.012C742.869 22.5216 742.575 22.079 742.123 21.8888Z" fill="black"/>
<rect x="728.701" y="20.3912" width="11.7935" height="5.05435" rx="1.40399" fill="black"/>
<path fill-rule="evenodd" clip-rule="evenodd" d="M718.338 21.1275C719.735 21.1275 721.079 21.6358 722.091 22.5472C722.167 22.6175 722.289 22.6166 722.364 22.5452L723.093 21.8488C723.131 21.8125 723.152 21.7634 723.152 21.7123C723.151 21.6612 723.129 21.6124 723.091 21.5766C720.434 19.1652 716.242 19.1652 713.586 21.5766C713.547 21.6124 713.525 21.6612 713.525 21.7123C713.525 21.7634 713.546 21.8125 713.584 21.8488L714.313 22.5452C714.388 22.6167 714.51 22.6176 714.586 22.5472C715.598 21.6357 716.942 21.1275 718.338 21.1275ZM718.337 23.4537C719.1 23.4536 719.835 23.7357 720.4 24.245C720.476 24.3173 720.597 24.3158 720.671 24.2415L721.394 23.5143C721.432 23.4762 721.453 23.4244 721.453 23.3707C721.452 23.3169 721.43 23.2656 721.391 23.2282C719.67 21.6348 717.006 21.6348 715.285 23.2282C715.246 23.2656 715.224 23.3169 715.224 23.3707C715.223 23.4245 715.244 23.4762 715.283 23.5143L716.005 24.2415C716.08 24.3158 716.2 24.3173 716.277 24.245C716.841 23.736 717.576 23.454 718.337 23.4537ZM719.754 24.9934C719.755 25.0515 719.734 25.1075 719.696 25.1482L718.474 26.5012C718.438 26.541 718.389 26.5633 718.338 26.5633C718.287 26.5633 718.238 26.541 718.203 26.5012L716.98 25.1482C716.942 25.1075 716.921 25.0515 716.923 24.9934C716.924 24.9353 716.947 24.8803 716.986 24.8414C717.767 24.1172 718.91 24.1172 719.691 24.8414C719.73 24.8804 719.753 24.9354 719.754 24.9934Z" fill="black"/>
<path fill-rule="evenodd" clip-rule="evenodd" d="M709.313 20.3436C709.313 19.9947 709.045 19.7119 708.714 19.7119H708.115C707.784 19.7119 707.516 19.9947 707.516 20.3436V25.8192C707.516 26.1681 707.784 26.451 708.115 26.451H708.714C709.045 26.451 709.313 26.1681 709.313 25.8192V20.3436ZM705.138 21.0597H705.737C706.068 21.0597 706.336 21.3493 706.336 21.7066V25.804C706.336 26.1613 706.068 26.451 705.737 26.451H705.138C704.807 26.451 704.539 26.1613 704.539 25.804V21.7066C704.539 21.3493 704.807 21.0597 705.138 21.0597ZM702.705 22.5198H702.106C701.775 22.5198 701.507 22.8132 701.507 23.175V25.7958C701.507 26.1576 701.775 26.451 702.106 26.451H702.705C703.036 26.451 703.304 26.1576 703.304 25.7958V23.175C703.304 22.8132 703.036 22.5198 702.705 22.5198ZM699.728 23.8677H699.129C698.798 23.8677 698.53 24.1568 698.53 24.5135V25.8052C698.53 26.1618 698.798 26.451 699.129 26.451H699.728C700.059 26.451 700.327 26.1618 700.327 25.8052V24.5135C700.327 24.1568 700.059 23.8677 699.728 23.8677Z" fill="black"/>
<path d="M568.665 26.5271V20.9844H568.581L566.907 22.1638V21.0357L568.665 19.8003H569.863V26.5271H568.665ZM574.166 26.6623C573.675 26.6623 573.244 26.5799 572.874 26.4152C572.508 26.2505 572.217 26.0221 572.003 25.73C571.791 25.4347 571.67 25.0944 571.639 24.709L571.634 24.6531H572.781L572.786 24.7044C572.808 24.894 572.878 25.0633 572.996 25.2125C573.114 25.3586 573.272 25.4736 573.471 25.5575C573.67 25.6383 573.902 25.6787 574.166 25.6787C574.424 25.6787 574.649 25.6336 574.842 25.5435C575.037 25.4534 575.19 25.3291 575.298 25.1706C575.407 25.0121 575.462 24.8287 575.462 24.6205V24.6112C575.462 24.2569 575.339 23.9849 575.093 23.7954C574.848 23.6058 574.509 23.511 574.077 23.511H573.28V22.616H574.054C574.299 22.616 574.515 22.5724 574.702 22.4854C574.888 22.3984 575.033 22.2803 575.135 22.1311C575.238 21.9789 575.289 21.8048 575.289 21.609V21.5997C575.289 21.3915 575.244 21.2144 575.154 21.0683C575.067 20.9222 574.938 20.8103 574.767 20.7326C574.599 20.6549 574.396 20.6161 574.156 20.6161C573.92 20.6161 573.71 20.6565 573.527 20.7373C573.347 20.8181 573.202 20.9331 573.093 21.0823C572.985 21.2283 572.919 21.4008 572.898 21.5997L572.893 21.6463H571.779L571.784 21.5904C571.818 21.2019 571.936 20.8647 572.138 20.5788C572.343 20.2898 572.616 20.066 572.958 19.9075C573.303 19.7459 573.703 19.6651 574.156 19.6651C574.619 19.6651 575.022 19.7413 575.364 19.8935C575.706 20.0427 575.97 20.2494 576.156 20.5135C576.346 20.7777 576.441 21.0869 576.441 21.4412V21.4505C576.441 21.7271 576.378 21.9726 576.254 22.1871C576.133 22.3984 575.965 22.574 575.751 22.7139C575.539 22.8537 575.298 22.9516 575.028 23.0075V23.0308C575.525 23.0775 575.925 23.2422 576.226 23.525C576.528 23.8047 576.678 24.1776 576.678 24.6438V24.6531C576.678 25.0447 576.573 25.3928 576.361 25.6973C576.15 25.9988 575.855 26.235 575.476 26.4059C575.1 26.5768 574.663 26.6623 574.166 26.6623ZM578.837 25.6227C578.625 25.6227 578.448 25.5528 578.305 25.413C578.165 25.27 578.095 25.096 578.095 24.8909C578.095 24.6826 578.165 24.5086 578.305 24.3687C578.448 24.2258 578.625 24.1543 578.837 24.1543C579.051 24.1543 579.228 24.2258 579.368 24.3687C579.508 24.5086 579.578 24.6826 579.578 24.8909C579.578 25.096 579.508 25.27 579.368 25.413C579.228 25.5528 579.051 25.6227 578.837 25.6227ZM578.837 22.1638C578.625 22.1638 578.448 22.0939 578.305 21.954C578.165 21.811 578.095 21.637 578.095 21.4319C578.095 21.2237 578.165 21.0496 578.305 20.9098C578.448 20.7668 578.625 20.6954 578.837 20.6954C579.051 20.6954 579.228 20.7668 579.368 20.9098C579.508 21.0496 579.578 21.2237 579.578 21.4319C579.578 21.637 579.508 21.811 579.368 21.954C579.228 22.0939 579.051 22.1638 578.837 22.1638ZM582.762 26.5271V20.9844H582.678L581.004 22.1638V21.0357L582.762 19.8003H583.96V26.5271H582.762ZM588.263 26.6623C587.772 26.6623 587.341 26.5799 586.971 26.4152C586.605 26.2505 586.314 26.0221 586.1 25.73C585.888 25.4347 585.767 25.0944 585.736 24.709L585.731 24.6531H586.878L586.883 24.7044C586.904 24.894 586.974 25.0633 587.092 25.2125C587.211 25.3586 587.369 25.4736 587.568 25.5575C587.767 25.6383 587.998 25.6787 588.263 25.6787C588.521 25.6787 588.746 25.6336 588.939 25.5435C589.134 25.4534 589.287 25.3291 589.395 25.1706C589.504 25.0121 589.559 24.8287 589.559 24.6205V24.6112C589.559 24.2569 589.436 23.9849 589.19 23.7954C588.945 23.6058 588.606 23.511 588.174 23.511H587.377V22.616H588.151C588.396 22.616 588.612 22.5724 588.799 22.4854C588.985 22.3984 589.13 22.2803 589.232 22.1311C589.335 21.9789 589.386 21.8048 589.386 21.609V21.5997C589.386 21.3915 589.341 21.2144 589.251 21.0683C589.164 20.9222 589.035 20.8103 588.864 20.7326C588.696 20.6549 588.493 20.6161 588.253 20.6161C588.017 20.6161 587.807 20.6565 587.624 20.7373C587.444 20.8181 587.299 20.9331 587.19 21.0823C587.082 21.2283 587.016 21.4008 586.995 21.5997L586.99 21.6463H585.876L585.88 21.5904C585.915 21.2019 586.033 20.8647 586.235 20.5788C586.44 20.2898 586.713 20.066 587.055 19.9075C587.4 19.7459 587.8 19.6651 588.253 19.6651C588.716 19.6651 589.119 19.7413 589.461 19.8935C589.802 20.0427 590.067 20.2494 590.253 20.5135C590.443 20.7777 590.537 21.0869 590.537 21.4412V21.4505C590.537 21.7271 590.475 21.9726 590.351 22.1871C590.23 22.3984 590.062 22.574 589.848 22.7139C589.636 22.8537 589.395 22.9516 589.125 23.0075V23.0308C589.622 23.0775 590.022 23.2422 590.323 23.525C590.624 23.8047 590.775 24.1776 590.775 24.6438V24.6531C590.775 25.0447 590.67 25.3928 590.458 25.6973C590.247 25.9988 589.952 26.235 589.572 26.4059C589.196 26.5768 588.76 26.6623 588.263 26.6623Z" fill="black"/>
</g>
<rect x="614.572" y="13.1019" width="70.1993" height="20.5937" rx="10.2968" fill="black"/>
<rect x="538.195" y="4.7735" width="224.638" height="482.409" rx="34.538" stroke="black" stroke-width="3.93116"/>
<rect x="534.826" y="1.40394" width="231.377" height="489.148" rx="37.9076" stroke="black" stroke-width="2.80797"/>
<defs>
<clipPath id="clip0_347_822">
<rect x="6.73901" y="6.73907" width="220.706" height="478.478" rx="32.5725" fill="white"/>
</clipPath>
<clipPath id="clip1_347_822">
<rect x="273.45" y="6.73907" width="220.706" height="478.478" rx="32.5725" fill="white"/>
</clipPath>
<clipPath id="clip2_347_822">
<rect x="540.161" y="6.73907" width="220.706" height="478.478" rx="32.5725" fill="white"/>
</clipPath>
</defs>
</svg>
